<svg width="381" height="1433" viewBox="0 0 381 1433" fill="none" xmlns="http://www.w3.org/2000/svg">
<g id="Villa-Map">
<g id="lotmap">
<path id="perimeter" d="M380.488 59.1679L156.988 0.167908L113.488 224.668L73.9878 370.168L25.4878 704.206L21.4878 1046.17L0.987762 1379.21L57.4878 1432.67L242.988 1384.17L289.988 1070.17L313.488 733.168L338.488 390.706L380.488 59.1679Z" fill="url(#paint0_linear_62_2)" fill-opacity="0.79"/>
<path id="Arrow 2" d="M34.9878 1305.63L38.3853 1300.96L32.6439 1300.35L34.9878 1305.63ZM36.7318 1289.17L36.2346 1289.11L34.9647 1301.1L35.4619 1301.15L35.9591 1301.21L37.2291 1289.22L36.7318 1289.17Z" fill="#DEEEEC"/>
<g id="lot-29">
<path id="shape" d="M184.998 65.4737L255.161 77.0278C257.613 77.4318 259.274 79.747 258.87 82.1992L255.337 103.652C254.933 106.104 252.618 107.764 250.166 107.361L180.003 95.8064C177.55 95.4026 175.89 93.0871 176.294 90.635L179.826 69.1827C180.23 66.7305 182.545 65.0699 184.998 65.4737Z" fill="#A9BBB2" stroke="#D9B382"/>
<text id="text" transform="translate(209.798 76.3635) rotate(8.87384)" fill="#212121" xml:space="preserve" style="white-space: pre" font-family="Inter" font-size="14" font-weight="bold" letter-spacing="0em"><tspan x="0.469727" y="13.5909">29</tspan></text>
</g>
<g id="lot-30">
<path id="shape_2" d="M270.998 79.4737L341.161 91.0278C343.613 91.4318 345.274 93.747 344.87 96.1992L341.337 117.652C340.933 120.104 338.618 121.764 336.166 121.361L266.002 109.806C263.55 109.403 261.89 107.087 262.293 104.635L265.826 83.1827C266.23 80.7305 268.545 79.0699 270.998 79.4737Z" fill="#A9BBB2" stroke="#D9B382"/>
<text id="text_2" transform="translate(295.798 90.3635) rotate(8.87384)" fill="#212121" xml:space="preserve" style="white-space: pre" font-family="Inter" font-size="14" font-weight="bold" letter-spacing="0em"><tspan x="0.0664062" y="13.5909">30</tspan></text>
</g>
<g id="lot-28">
<path id="shape_3" d="M178.998 99.4737L249.161 111.028C251.613 111.432 253.274 113.747 252.87 116.199L249.337 137.652C248.933 140.104 246.618 141.764 244.166 141.361L174.003 129.806C171.55 129.403 169.89 127.087 170.294 124.635L173.826 103.183C174.23 100.73 176.545 99.0699 178.998 99.4737Z" fill="#A9BBB2" stroke="#D9B382"/>
<text id="text_3" transform="translate(203.798 110.364) rotate(8.87384)" fill="#212121" xml:space="preserve" style="white-space: pre" font-family="Inter" font-size="14" font-weight="bold" letter-spacing="0em"><tspan x="0.462891" y="13.5909">28</tspan></text>
</g>
<g id="lot-31">
<path id="shape_4" d="M264.997 113.476L335.162 125.061C337.614 125.466 339.275 127.782 338.872 130.234L335.335 151.769C334.933 154.221 332.618 155.881 330.166 155.477L260.002 143.892C257.55 143.487 255.889 141.17 256.291 138.718L259.828 117.183C260.231 114.731 262.545 113.071 264.997 113.476Z" fill="#A9BBB2" stroke="#D9B382"/>
<text id="text_4" transform="matrix(0.987968 0.15466 -0.15386 0.988093 290.786 124.551)" fill="#212121" xml:space="preserve" style="white-space: pre" font-family="Inter" font-size="14" font-weight="bold" letter-spacing="0em"><tspan x="0.461476" y="13.5909">31</tspan></text>
</g>
<g id="lot-27">
<path id="shape_5" d="M171.998 133.474L242.161 145.028C244.613 145.432 246.274 147.747 245.87 150.199L242.337 171.652C241.933 174.104 239.618 175.764 237.166 175.361L167.003 163.806C164.55 163.403 162.89 161.087 163.294 158.635L166.826 137.183C167.23 134.73 169.545 133.07 171.998 133.474Z" fill="#A9BBB2" stroke="#D9B382"/>
<text id="text_5" transform="translate(196.798 144.364) rotate(8.87384)" fill="#212121" xml:space="preserve" style="white-space: pre" font-family="Inter" font-size="14" font-weight="bold" letter-spacing="0em"><tspan x="0.427734" y="13.5909">27&#10;</tspan></text>
</g>
<g id="lot-32">
<path id="shape_6" d="M258.998 147.474L329.161 159.028C331.613 159.432 333.274 161.747 332.87 164.199L329.337 185.652C328.933 188.104 326.618 189.764 324.166 189.361L254.002 177.806C251.55 177.403 249.89 175.087 250.293 172.635L253.826 151.183C254.23 148.73 256.545 147.07 258.998 147.474Z" fill="#A9BBB2" stroke="#D9B382"/>
<text id="text_6" transform="translate(283.798 158.364) rotate(8.87384)" fill="#212121" xml:space="preserve" style="white-space: pre" font-family="Inter" font-size="14" font-weight="bold" letter-spacing="0em"><tspan x="0.476562" y="13.5909">32</tspan></text>
</g>
<g id="lot-26">
<path id="shape_7" d="M165.998 167.474L236.161 179.028C238.613 179.432 240.274 181.747 239.87 184.199L236.337 205.652C235.933 208.104 233.618 209.764 231.166 209.361L161.003 197.806C158.55 197.403 156.89 195.087 157.294 192.635L160.826 171.183C161.23 168.73 163.545 167.07 165.998 167.474Z" fill="#A9BBB2" stroke="#D9B382"/>
<text id="text_7" transform="translate(190.798 178.364) rotate(8.87384)" fill="#212121" xml:space="preserve" style="white-space: pre" font-family="Inter" font-size="14" font-weight="bold" letter-spacing="0em"><tspan x="0.469727" y="13.5909">26&#10;</tspan></text>
</g>
<g id="lot-33">
<path id="shape_8" d="M252.998 181.474L323.161 193.028C325.613 193.432 327.274 195.747 326.87 198.199L323.337 219.652C322.933 222.104 320.618 223.764 318.166 223.361L248.002 211.806C245.55 211.403 243.89 209.087 244.293 206.635L247.826 185.183C248.23 182.73 250.545 181.07 252.998 181.474Z" fill="#A9BBB2" stroke="#D9B382"/>
<text id="text_8" transform="translate(277.798 192.364) rotate(8.87384)" fill="#212121" xml:space="preserve" style="white-space: pre" font-family="Inter" font-size="14" font-weight="bold" letter-spacing="0em"><tspan x="0.271484" y="13.5909">33</tspan></text>
</g>
<g id="lot-25">
<path id="shape_9" d="M159.998 201.474L230.161 213.028C232.613 213.432 234.274 215.747 233.87 218.199L230.337 239.652C229.933 242.104 227.618 243.764 225.166 243.361L155.003 231.806C152.55 231.403 150.89 229.087 151.294 226.635L154.826 205.183C155.23 202.73 157.545 201.07 159.998 201.474Z" fill="#A9BBB2" stroke="#D9B382"/>
<text id="text_9" transform="translate(184.798 212.364) rotate(8.87384)" fill="#212121" xml:space="preserve" style="white-space: pre" font-family="Inter" font-size="14" font-weight="bold" letter-spacing="0em"><tspan x="0.0791016" y="13.5909">25</tspan></text>
</g>
<g id="lot-34">
<path id="shape_10" d="M246.997 215.474L317.161 227.028C319.613 227.432 321.274 229.747 320.87 232.199L317.337 253.652C316.933 256.104 314.618 257.764 312.166 257.361L242.002 245.806C239.55 245.403 237.89 243.087 238.293 240.635L241.826 219.183C242.23 216.73 244.545 215.07 246.997 215.474Z" fill="#A9BBB2" stroke="#D9B382"/>
<text id="text_10" transform="translate(271.798 226.364) rotate(8.87384)" fill="#212121" xml:space="preserve" style="white-space: pre" font-family="Inter" font-size="14" font-weight="bold" letter-spacing="0em"><tspan x="0.141602" y="13.5909">34&#10;</tspan></text>
</g>
<g id="lot-24">
<path id="shape_11" d="M153.998 235.474L224.161 247.028C226.613 247.432 228.274 249.747 227.87 252.199L224.337 273.652C223.933 276.104 221.618 277.764 219.166 277.361L149.003 265.806C146.55 265.403 144.89 263.087 145.294 260.635L148.826 239.183C149.23 236.73 151.545 235.07 153.998 235.474Z" fill="#A9BBB2" stroke="#D9B382"/>
<text id="text_11" transform="translate(178.798 246.364) rotate(8.87384)" fill="#212121" xml:space="preserve" style="white-space: pre" font-family="Inter" font-size="14" font-weight="bold" letter-spacing="0em"><tspan x="0.456055" y="13.5909">24&#10;</tspan></text>
</g>
<g id="lot-35">
<path id="shape_12" d="M240.997 250.474L311.161 262.028C313.613 262.432 315.274 264.747 314.87 267.199L311.337 288.652C310.933 291.104 308.618 292.764 306.166 292.361L236.002 280.806C233.55 280.403 231.89 278.087 232.293 275.635L235.826 254.183C236.23 251.73 238.545 250.07 240.997 250.474Z" fill="#A9BBB2" stroke="#D9B382"/>
<text id="text_12" transform="translate(265.798 261.364) rotate(8.87384)" fill="#212121" xml:space="preserve" style="white-space: pre" font-family="Inter" font-size="14" font-weight="bold" letter-spacing="0em"><tspan x="0.374023" y="13.5909">35&#10;</tspan></text>
</g>
<g id="lot-23">
<path id="shape_13" d="M146.998 269.474L217.161 281.028C219.613 281.432 221.274 283.747 220.87 286.199L217.337 307.652C216.933 310.104 214.618 311.764 212.166 311.361L142.003 299.806C139.55 299.403 137.89 297.087 138.294 294.635L141.826 273.183C142.23 270.73 144.545 269.07 146.998 269.474Z" fill="#A9BBB2" stroke="#D9B382"/>
<text id="text_13" transform="translate(171.798 280.364) rotate(8.87384)" fill="#212121" xml:space="preserve" style="white-space: pre" font-family="Inter" font-size="14" font-weight="bold" letter-spacing="0em"><tspan x="0.476562" y="13.5909">23&#10;</tspan></text>
</g>
<g id="lot-36">
<path id="shape_14" d="M235.997 284.474L306.161 296.028C308.613 296.432 310.274 298.747 309.87 301.199L306.337 322.652C305.933 325.104 303.618 326.764 301.166 326.361L231.002 314.806C228.55 314.403 226.89 312.087 227.293 309.635L230.826 288.183C231.23 285.73 233.545 284.07 235.997 284.474Z" fill="#A9BBB2" stroke="#D9B382"/>
<text id="text_14" transform="translate(260.798 295.364) rotate(8.87384)" fill="#212121" xml:space="preserve" style="white-space: pre" font-family="Inter" font-size="14" font-weight="bold" letter-spacing="0em"><tspan x="0.264648" y="13.5909">36&#10;</tspan></text>
</g>
<g id="lot-22">
<path id="shape_15" d="M140.998 303.474L211.161 315.028C213.613 315.432 215.274 317.747 214.87 320.199L211.337 341.652C210.933 344.104 208.618 345.764 206.166 345.361L136.003 333.806C133.55 333.403 131.89 331.087 132.294 328.635L135.826 307.183C136.23 304.73 138.545 303.07 140.998 303.474Z" fill="#A9BBB2" stroke="#D9B382"/>
<text id="text_15" transform="translate(165.798 314.364) rotate(8.87384)" fill="#212121" xml:space="preserve" style="white-space: pre" font-family="Inter" font-size="14" font-weight="bold" letter-spacing="0em"><tspan x="0.181641" y="13.5909">22&#10;</tspan></text>
</g>
<g id="lot-21">
<path id="shape_16" d="M119.547 409.801L191.767 415.6C194.244 415.799 196.091 417.968 195.893 420.446L192.726 459.879C192.527 462.356 190.358 464.204 187.881 464.005L115.661 458.206C113.184 458.007 111.337 455.838 111.536 453.36L114.702 413.927C114.901 411.449 117.07 409.602 119.547 409.801Z" fill="#A9BBB2" stroke="#D9B382"/>
<text id="text_16" transform="translate(146.844 426.962) rotate(3.40674)" fill="#212121" xml:space="preserve" style="white-space: pre" font-family="Inter" font-size="14" font-weight="bold" letter-spacing="0em"><tspan x="0.166016" y="13.5909">21&#10;</tspan></text>
</g>
<g id="lot-38">
<path id="shape_17" d="M205.547 416.801L277.767 422.6C280.244 422.799 282.092 424.968 281.893 427.446L278.727 466.879C278.527 469.356 276.358 471.204 273.881 471.005L201.661 465.206C199.184 465.007 197.337 462.838 197.536 460.36L200.702 420.927C200.901 418.449 203.07 416.602 205.547 416.801Z" fill="#A9BBB2" stroke="#D9B382"/>
<text id="text_17" transform="translate(231.845 433.903) rotate(3.40674)" fill="#212121" xml:space="preserve" style="white-space: pre" font-family="Inter" font-size="14" font-weight="bold" letter-spacing="0em"><tspan x="0.257812" y="13.5909">38</tspan></text>
</g>
<g id="lot-37">
<path id="shape_18" d="M229.997 318.474L300.161 330.028C302.613 330.432 304.274 332.747 303.87 335.199L300.337 356.652C299.933 359.104 297.618 360.764 295.166 360.361L225.002 348.806C222.55 348.403 220.89 346.087 221.293 343.635L224.826 322.183C225.23 319.73 227.545 318.07 229.997 318.474Z" fill="#A9BBB2" stroke="#D9B382"/>
<text id="text_18" transform="translate(254.798 329.364) rotate(8.87384)" fill="#212121" xml:space="preserve" style="white-space: pre" font-family="Inter" font-size="14" font-weight="bold" letter-spacing="0em"><tspan x="0.222656" y="13.5909">37</tspan></text>
</g>
<g id="lot-14">
<path id="shape_19" d="M91.0823 712.054L162.146 714.562C164.63 714.65 166.573 716.735 166.485 719.218L165.718 740.946C165.63 743.43 163.546 745.372 161.062 745.285L89.998 742.776C87.5144 742.689 85.572 740.604 85.6595 738.12L86.4264 716.393C86.5141 713.909 88.5986 711.967 91.0823 712.054Z" fill="#A9BBB2" stroke="#D9B382"/>
<text id="text_19" transform="translate(118.069 719.718) rotate(1.54402)" fill="#212121" xml:space="preserve" style="white-space: pre" font-family="Inter" font-size="14" font-weight="bold" letter-spacing="0em"><tspan x="0.331055" y="13.5909">14</tspan></text>
</g>
<g id="lot-45">
<path id="shape_20" d="M178.082 715.054L249.147 717.562C251.63 717.65 253.573 719.735 253.485 722.218L252.718 743.946C252.63 746.43 250.546 748.372 248.062 748.285L176.998 745.776C174.514 745.689 172.572 743.604 172.66 741.12L173.426 719.393C173.514 716.909 175.599 714.967 178.082 715.054Z" fill="#A9BBB2" stroke="#D9B382"/>
<text id="text_20" transform="translate(204.069 722.691) rotate(1.54402)" fill="#212121" xml:space="preserve" style="white-space: pre" font-family="Inter" font-size="14" font-weight="bold" letter-spacing="0em"><tspan x="0.244141" y="13.5909">45&#10;</tspan></text>
</g>
<g id="lot-13">
<path id="shape_21" d="M90.0823 747.054L161.146 749.562C163.63 749.65 165.573 751.735 165.485 754.218L164.718 775.946C164.63 778.43 162.546 780.372 160.062 780.285L88.998 777.776C86.5144 777.689 84.572 775.604 84.6595 773.12L85.4264 751.393C85.5141 748.909 87.5986 746.967 90.0823 747.054Z" fill="#A9BBB2" stroke="#D9B382"/>
<text id="text_21" transform="translate(117.069 754.718) rotate(1.54402)" fill="#212121" xml:space="preserve" style="white-space: pre" font-family="Inter" font-size="14" font-weight="bold" letter-spacing="0em"><tspan x="0.460938" y="13.5909">13&#10;</tspan></text>
</g>
<g id="lot-46">
<path id="shape_22" d="M177.082 750.054L248.147 752.562C250.63 752.65 252.573 754.735 252.485 757.218L251.718 778.946C251.63 781.43 249.546 783.372 247.062 783.285L175.998 780.776C173.514 780.689 171.572 778.604 171.66 776.12L172.426 754.393C172.514 751.909 174.599 749.967 177.082 750.054Z" fill="#A9BBB2" stroke="#D9B382"/>
<text id="text_22" transform="translate(203.069 757.691) rotate(1.54402)" fill="#212121" xml:space="preserve" style="white-space: pre" font-family="Inter" font-size="14" font-weight="bold" letter-spacing="0em"><tspan x="0.134766" y="13.5909">46&#10;</tspan></text>
</g>
<g id="lot-12">
<path id="shape_23" d="M89.2597 781.157L160.324 783.665C162.807 783.753 164.75 785.838 164.662 788.321L163.895 810.049C163.808 812.532 161.723 814.475 159.24 814.387L88.1754 811.879C85.6917 811.792 83.7494 809.707 83.8369 807.223L84.6038 785.496C84.6915 783.012 86.776 781.069 89.2597 781.157Z" fill="#A9BBB2" stroke="#D9B382"/>
<text id="text_23" transform="translate(116.246 788.821) rotate(1.54402)" fill="#212121" xml:space="preserve" style="white-space: pre" font-family="Inter" font-size="14" font-weight="bold" letter-spacing="0em"><tspan x="0.166016" y="13.5909">12&#10;</tspan><tspan x="8" y="30.5909">&#10;</tspan></text>
</g>
<g id="lot-47">
<path id="shape_24" d="M175.351 784.198L246.415 786.707C248.899 786.794 250.842 788.879 250.754 791.363L249.987 813.09C249.899 815.574 247.815 817.516 245.331 817.429L174.267 814.92C171.783 814.833 169.841 812.748 169.929 810.265L170.695 788.537C170.783 786.053 172.868 784.111 175.351 784.198Z" fill="#A9BBB2" stroke="#D9B382"/>
<text id="text_24" transform="translate(201.338 791.835) rotate(1.54402)" fill="#212121" xml:space="preserve" style="white-space: pre" font-family="Inter" font-size="14" font-weight="bold" letter-spacing="0em"><tspan x="0.0927734" y="13.5909">47&#10;</tspan></text>
</g>
<g id="lot-11">
<path id="shape_25" d="M87.6465 815.645L158.711 818.153C161.194 818.241 163.137 820.325 163.049 822.809L162.282 844.537C162.194 847.02 160.11 848.963 157.626 848.875L86.5622 846.367C84.0785 846.279 82.1362 844.195 82.2237 841.711L82.9906 819.983C83.0782 817.5 85.1628 815.557 87.6465 815.645Z" fill="#A9BBB2" stroke="#D9B382"/>
<text id="text_25" transform="translate(115.633 823.335) rotate(1.54402)" fill="#212121" xml:space="preserve" style="white-space: pre" font-family="Inter" font-size="14" font-weight="bold" letter-spacing="0em"><tspan x="0.150391" y="13.5909">11&#10;</tspan></text>
</g>
<g id="lot-48">
<path id="shape_26" d="M173.738 818.686L244.802 821.194C247.286 821.282 249.228 823.366 249.141 825.85L248.374 847.578C248.286 850.061 246.201 852.004 243.718 851.916L172.654 849.408C170.17 849.32 168.228 847.236 168.315 844.752L169.082 823.024C169.17 820.541 171.254 818.598 173.738 818.686Z" fill="#A9BBB2" stroke="#D9B382"/>
<text id="text_26" transform="translate(199.725 826.323) rotate(1.54402)" fill="#212121" xml:space="preserve" style="white-space: pre" font-family="Inter" font-size="14" font-weight="bold" letter-spacing="0em"><tspan x="0.12793" y="13.5909">48&#10;</tspan></text>
</g>
<g id="lot-10">
<path id="shape_27" d="M87.0823 849.054L158.146 851.562C160.63 851.65 162.573 853.735 162.485 856.218L161.718 877.946C161.63 880.43 159.546 882.372 157.062 882.285L85.998 879.776C83.5144 879.689 81.572 877.604 81.6595 875.12L82.4264 853.393C82.5141 850.909 84.5986 848.967 87.0823 849.054Z" fill="#A9BBB2" stroke="#D9B382"/>
<text id="text_27" transform="translate(114.069 856.718) rotate(1.54402)" fill="#212121" xml:space="preserve" style="white-space: pre" font-family="Inter" font-size="14" font-weight="bold" letter-spacing="0em"><tspan x="0.255859" y="13.5909">10&#10;</tspan></text>
</g>
<g id="lot-49">
<path id="shape_28" d="M172.082 852.054L243.147 854.562C245.63 854.65 247.573 856.735 247.485 859.218L246.718 880.946C246.63 883.43 244.546 885.372 242.062 885.285L170.998 882.776C168.514 882.689 166.572 880.604 166.66 878.12L167.426 856.393C167.514 853.909 169.599 851.967 172.082 852.054Z" fill="#A9BBB2" stroke="#D9B382"/>
<text id="text_28" transform="translate(198.069 859.691) rotate(1.54402)" fill="#212121" xml:space="preserve" style="white-space: pre" font-family="Inter" font-size="14" font-weight="bold" letter-spacing="0em"><tspan x="0.134766" y="13.5909">49&#10;</tspan><tspan x="9.5" y="30.5909">&#10;</tspan><tspan x="9.5" y="47.5909">&#10;</tspan></text>
</g>
<g id="lot-9">
<path id="shape_29" d="M85.0824 883.054L156.147 885.562C158.63 885.65 160.573 887.735 160.485 890.218L159.718 911.946C159.63 914.43 157.546 916.372 155.062 916.285L83.998 913.776C81.5144 913.689 79.5721 911.604 79.6596 909.12L80.4264 887.393C80.5141 884.909 82.5986 882.967 85.0824 883.054Z" fill="#A9BBB2" stroke="#D9B382"/>
<text id="text_29" transform="translate(115.068 890.799) rotate(1.54402)" fill="#212121" xml:space="preserve" style="white-space: pre" font-family="Inter" font-size="14" font-weight="bold" letter-spacing="0em"><tspan x="0.378906" y="13.5909">9&#10;</tspan><tspan x="5" y="30.5909">&#10;</tspan></text>
</g>
<g id="lot-50">
<path id="shape_30" d="M171.082 886.054L242.147 888.562C244.63 888.65 246.573 890.735 246.485 893.218L245.718 914.946C245.63 917.43 243.546 919.372 241.062 919.285L169.998 916.776C167.514 916.689 165.572 914.604 165.66 912.12L166.426 890.393C166.514 887.909 168.599 885.967 171.082 886.054Z" fill="#A9BBB2" stroke="#D9B382"/>
<text id="text_30" transform="translate(197.069 893.691) rotate(1.54402)" fill="#212121" xml:space="preserve" style="white-space: pre" font-family="Inter" font-size="14" font-weight="bold" letter-spacing="0em"><tspan x="0.168945" y="13.5909">50&#10;</tspan></text>
</g>
<g id="lot-8">
<path id="shape_31" d="M84.0824 917.054L155.147 919.562C157.63 919.65 159.573 921.735 159.485 924.218L158.718 945.946C158.63 948.43 156.546 950.372 154.062 950.285L82.998 947.776C80.5144 947.689 78.5721 945.604 78.6596 943.12L79.4264 921.393C79.5141 918.909 81.5986 916.967 84.0824 917.054Z" fill="#A9BBB2" stroke="#D9B382"/>
<text id="text_31" transform="translate(114.068 924.799) rotate(1.54402)" fill="#212121" xml:space="preserve" style="white-space: pre" font-family="Inter" font-size="14" font-weight="bold" letter-spacing="0em"><tspan x="0.37207" y="13.5909">8&#10;</tspan><tspan x="5" y="30.5909">&#10;</tspan></text>
</g>
<g id="lot-51">
<path id="shape_32" d="M169.082 920.054L240.147 922.562C242.63 922.65 244.573 924.735 244.485 927.218L243.718 948.946C243.63 951.43 241.546 953.372 239.062 953.285L167.998 950.776C165.514 950.689 163.572 948.604 163.66 946.12L164.426 924.393C164.514 921.909 166.599 919.967 169.082 920.054Z" fill="#A9BBB2" stroke="#D9B382"/>
<text id="text_32" transform="translate(196.069 927.718) rotate(1.54402)" fill="#212121" xml:space="preserve" style="white-space: pre" font-family="Inter" font-size="14" font-weight="bold" letter-spacing="0em"><tspan x="0.0634766" y="13.5909">51&#10;</tspan><tspan x="8" y="30.5909">&#10;</tspan></text>
</g>
<g id="lot-7">
<path id="shape_33" d="M82.0824 950.054L153.147 952.562C155.63 952.65 157.573 954.735 157.485 957.218L156.718 978.946C156.63 981.43 154.546 983.372 152.062 983.285L80.998 980.776C78.5144 980.689 76.5721 978.604 76.6596 976.12L77.4264 954.393C77.5141 951.909 79.5986 949.967 82.0824 950.054Z" fill="#A9BBB2" stroke="#D9B382"/>
<text id="text_33" transform="translate(113.068 957.826) rotate(1.54402)" fill="#212121" xml:space="preserve" style="white-space: pre" font-family="Inter" font-size="14" font-weight="bold" letter-spacing="0em"><tspan x="0.336914" y="13.5909">7&#10;</tspan></text>
</g>
<g id="lot-6">
<path id="shape_34" d="M81.0824 984.054L152.147 986.562C154.63 986.65 156.573 988.735 156.485 991.218L155.718 1012.95C155.63 1015.43 153.546 1017.37 151.062 1017.28L79.998 1014.78C77.5144 1014.69 75.5721 1012.6 75.6596 1010.12L76.4264 988.393C76.5141 985.909 78.5986 983.967 81.0824 984.054Z" fill="#A9BBB2" stroke="#D9B382"/>
<text id="text_34" transform="translate(111.068 991.799) rotate(1.54402)" fill="#212121" xml:space="preserve" style="white-space: pre" font-family="Inter" font-size="14" font-weight="bold" letter-spacing="0em"><tspan x="0.378906" y="13.5909">6&#10;</tspan></text>
</g>
<g id="lot-5">
<path id="shape_35" d="M79.7017 1018L150.008 1020.84C152.492 1020.94 154.444 1023.04 154.368 1025.52L153.69 1047.92C153.615 1050.4 151.541 1052.34 149.057 1052.24L78.7506 1049.39C76.2674 1049.29 74.3154 1047.2 74.3906 1044.71L75.0691 1022.32C75.1443 1019.83 77.2184 1017.9 79.7017 1018Z" fill="#A9BBB2" stroke="#D9B382"/>
<text id="text_35" transform="matrix(0.999493 0.0318355 -0.0221991 0.999754 105.426 1025.91)" fill="#212121" xml:space="preserve" style="white-space: pre" font-family="Inter" font-size="14" font-weight="bold" letter-spacing="0em"><tspan x="4.40502" y="13.5909">5</tspan></text>
</g>
<g id="lot-54">
<path id="shape_36" d="M164.689 1021.75L234.994 1026.34C237.474 1026.5 239.465 1028.65 239.44 1031.13L239.175 1058.01C239.15 1060.49 237.12 1062.37 234.64 1062.21L164.335 1057.62C161.855 1057.46 159.864 1055.32 159.889 1052.83L160.154 1025.96C160.178 1023.47 162.209 1021.59 164.689 1021.75Z" fill="#A9BBB2" stroke="#D9B382"/>
<text id="text_36" transform="matrix(0.998466 0.0553613 -0.00279814 0.999996 189.102 1032.17)" fill="#212121" xml:space="preserve" style="white-space: pre" font-family="Inter" font-size="14" font-weight="bold" letter-spacing="0em"><tspan x="1.63584" y="13.5909">54&#10;</tspan></text>
</g>
<g id="lot-53">
<path id="shape_37" d="M166.082 988.054L237.147 990.562C239.63 990.65 241.573 992.735 241.485 995.218L240.718 1016.95C240.63 1019.43 238.546 1021.37 236.062 1021.28L164.998 1018.78C162.514 1018.69 160.572 1016.6 160.66 1014.12L161.426 992.393C161.514 989.909 163.599 987.967 166.082 988.054Z" fill="#A9BBB2" stroke="#D9B382"/>
<text id="text_37" transform="translate(192.069 995.691) rotate(1.54402)" fill="#212121" xml:space="preserve" style="white-space: pre" font-family="Inter" font-size="14" font-weight="bold" letter-spacing="0em"><tspan x="0.374023" y="13.5909">53&#10;</tspan></text>
</g>
<g id="lot-52">
<path id="shape_38" d="M168.082 954.054L239.147 956.562C241.63 956.65 243.573 958.735 243.485 961.218L242.718 982.946C242.63 985.43 240.546 987.372 238.062 987.285L166.998 984.776C164.514 984.689 162.572 982.604 162.66 980.12L163.426 958.393C163.514 955.909 165.599 953.967 168.082 954.054Z" fill="#A9BBB2" stroke="#D9B382"/>
<text id="text_38" transform="translate(194.069 961.691) rotate(1.54402)" fill="#212121" xml:space="preserve" style="white-space: pre" font-family="Inter" font-size="14" font-weight="bold" letter-spacing="0em"><tspan x="0.0791016" y="13.5909">52&#10;</tspan></text>
</g>
<g id="lot-4">
<path id="shape_39" d="M73.0481 1118.02L143.679 1126.25C146.147 1126.54 147.916 1128.77 147.628 1131.24L145.113 1152.83C144.825 1155.3 142.591 1157.07 140.123 1156.78L69.4916 1148.56C67.0231 1148.27 65.2551 1146.04 65.5424 1143.57L68.0577 1121.97C68.3452 1119.5 70.5795 1117.74 73.0481 1118.02Z" fill="#A9BBB2" stroke="#D9B382"/>
<text id="text_39" transform="translate(102.312 1128.16) rotate(6.16611)" fill="#212121" xml:space="preserve" style="white-space: pre" font-family="Inter" font-size="14" font-weight="bold" letter-spacing="0em"><tspan x="0.255859" y="13.5909">4</tspan></text>
</g>
<g id="lot-55">
<path id="shape_40" d="M155.919 1127.86L226.55 1136.09C229.019 1136.38 230.787 1138.61 230.499 1141.08L227.984 1162.67C227.696 1165.14 225.462 1166.91 222.994 1166.62L152.363 1158.4C149.894 1158.11 148.126 1155.88 148.414 1153.41L150.929 1131.81C151.216 1129.34 153.451 1127.57 155.919 1127.86Z" fill="#A9BBB2" stroke="#D9B382"/>
<text id="text_40" transform="translate(181.206 1137.57) rotate(6.16611)" fill="#212121" xml:space="preserve" style="white-space: pre" font-family="Inter" font-size="14" font-weight="bold" letter-spacing="0em"><tspan x="0.476562" y="13.5909">55</tspan></text>
</g>
<g id="lot-3">
<path id="shape_41" d="M68.0481 1152.02L138.679 1160.25C141.147 1160.54 142.916 1162.77 142.628 1165.24L140.113 1186.83C139.825 1189.3 137.591 1191.07 135.123 1190.78L64.4916 1182.56C62.0231 1182.27 60.2551 1180.04 60.5424 1177.57L63.0577 1155.97C63.3452 1153.5 65.5795 1151.74 68.0481 1152.02Z" fill="#A9BBB2" stroke="#D9B382"/>
<text id="text_41" transform="translate(97.3121 1162.16) rotate(6.16611)" fill="#212121" xml:space="preserve" style="white-space: pre" font-family="Inter" font-size="14" font-weight="bold" letter-spacing="0em"><tspan x="0.385742" y="13.5909">3</tspan></text>
</g>
<g id="lot-2">
<path id="shape_42" d="M64.0481 1186.02L134.679 1194.25C137.147 1194.54 138.916 1196.77 138.628 1199.24L136.113 1220.83C135.825 1223.3 133.591 1225.07 131.123 1224.78L60.4916 1216.56C58.0231 1216.27 56.2551 1214.04 56.5424 1211.57L59.0577 1189.97C59.3452 1187.5 61.5795 1185.74 64.0481 1186.02Z" fill="#A9BBB2" stroke="#D9B382"/>
<text id="text_42" transform="translate(92.7859 1194.59) rotate(6.16611)" fill="#212121" xml:space="preserve" style="white-space: pre" font-family="Inter" font-size="14" font-weight="bold" letter-spacing="0em"><tspan x="0.0908203" y="13.5909">2</tspan></text>
</g>
<g id="lot-1">
<path id="shape_43" d="M60.0481 1220.02L130.679 1228.25C133.147 1228.54 134.916 1230.77 134.628 1233.24L132.113 1254.83C131.825 1257.3 129.591 1259.07 127.123 1258.78L56.4916 1250.56C54.0231 1250.27 52.2551 1248.04 52.5424 1245.57L55.0577 1223.97C55.3452 1221.5 57.5795 1219.74 60.0481 1220.02Z" fill="#A9BBB2" stroke="#D9B382"/>
<text id="text_43" transform="translate(91.3005 1230.37) rotate(6.16611)" fill="#212121" xml:space="preserve" style="white-space: pre" font-family="Inter" font-size="14" font-weight="bold" letter-spacing="0em"><tspan x="0.0751953" y="13.5909">1</tspan></text>
</g>
<g id="lot-57">
<path id="shape_44" d="M148.048 1196.02L218.679 1204.25C221.148 1204.54 222.916 1206.77 222.628 1209.24L220.113 1230.83C219.825 1233.3 217.591 1235.07 215.123 1234.78L144.492 1226.56C142.023 1226.27 140.255 1224.04 140.542 1221.57L143.058 1199.97C143.345 1197.5 145.58 1195.74 148.048 1196.02Z" fill="#A9BBB2" stroke="#D9B382"/>
<text id="text_44" transform="translate(173.335 1205.73) rotate(6.16611)" fill="#212121" xml:space="preserve" style="white-space: pre" font-family="Inter" font-size="14" font-weight="bold" letter-spacing="0em"><tspan x="0.325195" y="13.5909">57</tspan></text>
</g>
<g id="lot-58">
<path id="shape_45" d="M144.048 1230.02L214.679 1238.25C217.148 1238.54 218.916 1240.77 218.628 1243.24L216.113 1264.83C215.825 1267.3 213.591 1269.07 211.123 1268.78L140.492 1260.56C138.023 1260.27 136.255 1258.04 136.542 1255.57L139.058 1233.97C139.345 1231.5 141.58 1229.74 144.048 1230.02Z" fill="#A9BBB2" stroke="#D9B382"/>
<text id="text_45" transform="translate(169.335 1239.73) rotate(6.16611)" fill="#212121" xml:space="preserve" style="white-space: pre" font-family="Inter" font-size="14" font-weight="bold" letter-spacing="0em"><tspan x="0.360352" y="13.5909">58&#10;</tspan></text>
</g>
<g id="lot-56">
<path id="shape_46" d="M152.048 1162.02L222.679 1170.25C225.148 1170.54 226.916 1172.77 226.628 1175.24L224.113 1196.83C223.825 1199.3 221.591 1201.07 219.123 1200.78L148.492 1192.56C146.023 1192.27 144.255 1190.04 144.542 1187.57L147.058 1165.97C147.345 1163.5 149.58 1161.74 152.048 1162.02Z" fill="#A9BBB2" stroke="#D9B382"/>
<text id="text_46" transform="translate(177.335 1171.73) rotate(6.16611)" fill="#212121" xml:space="preserve" style="white-space: pre" font-family="Inter" font-size="14" font-weight="bold" letter-spacing="0em"><tspan x="0.367188" y="13.5909">56</tspan></text>
</g>
<g id="lot-20">
<path id="shape_47" d="M115.07 461.549L185.938 467.391C188.415 467.596 190.258 469.769 190.054 472.246L188.267 493.913C188.063 496.39 185.89 498.233 183.413 498.029L112.545 492.187C110.068 491.982 108.226 489.809 108.43 487.332L110.216 465.664C110.42 463.188 112.594 461.345 115.07 461.549Z" fill="#A9BBB2" stroke="#D9B382"/>
<text id="text_47" transform="translate(140.67 470.398) rotate(4.23503)" fill="#212121" xml:space="preserve" style="white-space: pre" font-family="Inter" font-size="14" font-weight="bold" letter-spacing="0em"><tspan x="0.271484" y="13.5909">20</tspan></text>
</g>
<g id="lot-39">
<path id="shape_48" d="M202.07 468.549L272.938 474.391C275.415 474.596 277.258 476.769 277.054 479.246L275.267 500.913C275.063 503.39 272.89 505.233 270.413 505.029L199.545 499.187C197.068 498.982 195.226 496.809 195.43 494.332L197.216 472.664C197.42 470.188 199.594 468.345 202.07 468.549Z" fill="#A9BBB2" stroke="#D9B382"/>
<text id="text_48" transform="translate(227.67 477.398) rotate(4.23503)" fill="#212121" xml:space="preserve" style="white-space: pre" font-family="Inter" font-size="14" font-weight="bold" letter-spacing="0em"><tspan x="0.264648" y="13.5909">39&#10;</tspan></text>
</g>
<g id="lot-19">
<path id="shape_49" d="M112.07 495.549L182.938 501.391C185.415 501.596 187.258 503.769 187.054 506.246L185.267 527.913C185.063 530.39 182.89 532.233 180.413 532.029L109.545 526.187C107.068 525.982 105.226 523.809 105.43 521.332L107.216 499.664C107.42 497.188 109.594 495.345 112.07 495.549Z" fill="#A9BBB2" stroke="#D9B382"/>
<text id="text_49" transform="translate(138.668 504.472) rotate(4.23503)" fill="#212121" xml:space="preserve" style="white-space: pre" font-family="Inter" font-size="14" font-weight="bold" letter-spacing="0em"><tspan x="0.454102" y="13.5909">19&#10;</tspan></text>
</g>
<g id="lot-40">
<path id="shape_50" d="M199.07 502.549L269.938 508.391C272.415 508.596 274.258 510.769 274.054 513.246L272.267 534.913C272.063 537.39 269.89 539.233 267.413 539.029L196.545 533.187C194.068 532.982 192.226 530.809 192.43 528.332L194.216 506.664C194.42 504.188 196.594 502.345 199.07 502.549Z" fill="#A9BBB2" stroke="#D9B382"/>
<text id="text_50" transform="translate(223.673 511.324) rotate(4.23503)" fill="#212121" xml:space="preserve" style="white-space: pre" font-family="Inter" font-size="14" font-weight="bold" letter-spacing="0em"><tspan x="0.436523" y="13.5909">40&#10;</tspan></text>
</g>
<g id="lot-18">
<path id="shape_51" d="M109.07 530.549L179.938 536.391C182.415 536.596 184.258 538.769 184.054 541.246L182.267 562.913C182.063 565.39 179.89 567.233 177.413 567.029L106.545 561.187C104.068 560.982 102.226 558.809 102.43 556.332L104.216 534.664C104.42 532.188 106.594 530.345 109.07 530.549Z" fill="#A9BBB2" stroke="#D9B382"/>
<text id="text_51" transform="translate(135.668 539.472) rotate(4.23503)" fill="#212121" xml:space="preserve" style="white-space: pre" font-family="Inter" font-size="14" font-weight="bold" letter-spacing="0em"><tspan x="0.447266" y="13.5909">18&#10;</tspan></text>
</g>
<g id="lot-41">
<path id="shape_52" d="M196.07 537.549L266.938 543.391C269.415 543.596 271.258 545.769 271.054 548.246L269.267 569.913C269.063 572.39 266.89 574.233 264.413 574.029L193.545 568.187C191.068 567.982 189.226 565.809 189.43 563.332L191.216 541.664C191.42 539.188 193.594 537.345 196.07 537.549Z" fill="#A9BBB2" stroke="#D9B382"/>
<text id="text_52" transform="translate(222.668 546.472) rotate(4.23503)" fill="#212121" xml:space="preserve" style="white-space: pre" font-family="Inter" font-size="14" font-weight="bold" letter-spacing="0em"><tspan x="0.399414" y="13.5909">41&#10;</tspan></text>
</g>
<g id="lot-17">
<path id="shape_53" d="M106.07 564.549L176.938 570.391C179.415 570.596 181.258 572.769 181.053 575.246L179.267 596.913C179.063 599.39 176.89 601.233 174.413 601.029L103.545 595.187C101.068 594.982 99.2257 592.809 99.4298 590.332L101.216 568.664C101.42 566.188 103.594 564.345 106.07 564.549Z" fill="#A9BBB2" stroke="#D9B382"/>
<text id="text_53" transform="translate(132.668 573.472) rotate(4.23503)" fill="#212121" xml:space="preserve" style="white-space: pre" font-family="Inter" font-size="14" font-weight="bold" letter-spacing="0em"><tspan x="0.412109" y="13.5909">17&#10;</tspan></text>
</g>
<g id="lot-42">
<path id="shape_54" d="M193.07 571.549L263.938 577.391C266.415 577.596 268.258 579.769 268.054 582.246L266.267 603.913C266.063 606.39 263.89 608.233 261.413 608.029L190.545 602.187C188.068 601.982 186.226 599.809 186.43 597.332L188.216 575.664C188.42 573.188 190.594 571.345 193.07 571.549Z" fill="#A9BBB2" stroke="#D9B382"/>
<text id="text_54" transform="translate(218.67 580.398) rotate(4.23503)" fill="#212121" xml:space="preserve" style="white-space: pre" font-family="Inter" font-size="14" font-weight="bold" letter-spacing="0em"><tspan x="0.34668" y="13.5909">42&#10;</tspan></text>
</g>
<g id="lot-16">
<path id="shape_55" d="M103.301 598.21L174.169 604.052C176.646 604.256 178.488 606.429 178.284 608.906L176.498 630.574C176.294 633.051 174.12 634.893 171.644 634.689L100.775 628.847C98.2987 628.643 96.4564 626.469 96.6604 623.993L98.4465 602.325C98.6507 599.848 100.824 598.006 103.301 598.21Z" fill="#A9BBB2" stroke="#D9B382"/>
<text id="text_55" transform="translate(129.898 607.132) rotate(4.23503)" fill="#212121" xml:space="preserve" style="white-space: pre" font-family="Inter" font-size="14" font-weight="bold" letter-spacing="0em"><tspan x="0.454102" y="13.5909">16&#10;</tspan></text>
</g>
<g id="lot-43">
<path id="shape_56" d="M190.07 605.549L260.938 611.391C263.415 611.596 265.258 613.769 265.054 616.246L263.267 637.913C263.063 640.39 260.89 642.233 258.413 642.029L187.545 636.187C185.068 635.982 183.226 633.809 183.43 631.332L185.216 609.664C185.42 607.188 187.594 605.345 190.07 605.549Z" fill="#A9BBB2" stroke="#D9B382"/>
<text id="text_56" transform="translate(215.67 614.398) rotate(4.23503)" fill="#212121" xml:space="preserve" style="white-space: pre" font-family="Inter" font-size="14" font-weight="bold" letter-spacing="0em"><tspan x="0.141602" y="13.5909">43&#10;</tspan></text>
</g>
<g id="lot-15">
<path id="shape_57" d="M100.07 632.584L170.938 638.426C173.415 638.63 175.258 640.803 175.053 643.28L173.267 664.948C173.063 667.425 170.89 669.267 168.413 669.063L97.5448 663.221C95.0681 663.017 93.2257 660.843 93.4298 658.367L95.2159 636.699C95.4201 634.222 97.5935 632.38 100.07 632.584Z" fill="#A9BBB2" stroke="#D9B382"/>
<text id="text_57" transform="translate(126.668 641.506) rotate(4.23503)" fill="#212121" xml:space="preserve" style="white-space: pre" font-family="Inter" font-size="14" font-weight="bold" letter-spacing="0em"><tspan x="0.0634766" y="13.5909">15&#10;</tspan></text>
</g>
<g id="lot-44">
<path id="shape_58" d="M187.07 639.549L257.938 645.391C260.415 645.596 262.258 647.769 262.054 650.246L260.267 671.913C260.063 674.39 257.89 676.233 255.413 676.029L184.545 670.187C182.068 669.982 180.226 667.809 180.43 665.332L182.216 643.664C182.42 641.188 184.594 639.345 187.07 639.549Z" fill="#A9BBB2" stroke="#D9B382"/>
<text id="text_58" transform="translate(212.67 648.398) rotate(4.23503)" fill="#212121" xml:space="preserve" style="white-space: pre" font-family="Inter" font-size="14" font-weight="bold" letter-spacing="0em"><tspan x="0.0117188" y="13.5909">44&#10;</tspan></text>
</g>
<path id="Arrow 1" d="M66.9878 1278.17L70.8486 1282.46L72.6358 1276.97L66.9878 1278.17ZM82.7277 1283.29L82.8824 1282.82L71.4215 1279.08L71.2668 1279.56L71.112 1280.04L82.5729 1283.77L82.7277 1283.29Z" fill="#DEEEEC"/>
</g>
<g id="environment">
<g id="Rectangle 3">
<path d="M18.9878 1336.67L31.9878 1344.67L26.9878 1359.17L12.9878 1352.29L18.9878 1336.67Z" fill="#D9D9D9"/>
<path d="M67.4878 1362.67L80.4878 1370.67L75.4878 1385.17L61.4878 1378.29L67.4878 1362.67Z" fill="#D9D9D9"/>
</g>
<rect id="Rectangle 4" x="33.0006" y="1346.17" width="37" height="2.25626" transform="rotate(26.6709 33.0006 1346.17)" fill="#5A5F6A"/>
<rect id="Rectangle 6" x="29.0006" y="1358.17" width="37" height="2.25626" transform="rotate(26.6709 29.0006 1358.17)" fill="#5A5F6A"/>
<rect id="Rectangle 5" x="32.0006" y="1349.17" width="37" height="2.25626" transform="rotate(26.6709 32.0006 1349.17)" fill="#5A5F6A"/>
<rect id="Rectangle 7" x="31.0006" y="1352.17" width="37" height="2.25626" transform="rotate(26.6709 31.0006 1352.17)" fill="#5A5F6A"/>
<rect id="Rectangle 8" x="30.0006" y="1355.17" width="37" height="2.25626" transform="rotate(26.6709 30.0006 1355.17)" fill="#5A5F6A"/>
<path id="Arrow 1_2" d="M49.9878 1383.17L45.2575 1386.48L50.4893 1388.92L49.9878 1383.17ZM42.9878 1398.17L43.4409 1398.38L48.5379 1387.46L48.0848 1387.24L47.6317 1387.03L42.5347 1397.96L42.9878 1398.17Z" fill="#DEEEEC"/>
<path id="Arrow 3" d="M76.2019 1320.17L70.7231 1318.35L71.8854 1324L76.2019 1320.17ZM59.9878 1323.5L60.0885 1323.99L71.8947 1321.56L71.794 1321.07L71.6934 1320.58L59.8872 1323.01L59.9878 1323.5Z" fill="#DEEEEC"/>
<path id="Arrow 2_2" d="M24.9878 1389.17L29.7182 1385.86L24.4863 1383.41L24.9878 1389.17ZM31.9878 1374.17L31.5347 1373.96L26.4377 1384.88L26.8908 1385.09L27.3439 1385.3L32.4409 1374.38L31.9878 1374.17Z" fill="#DEEEEC"/>
<text id="Lote Commercial" transform="translate(122.988 1361.94) rotate(-13.3733)" fill="#DEEEEC" xml:space="preserve" style="white-space: pre" font-family="Inter" font-size="9" font-weight="bold" letter-spacing="0em"><tspan x="24.3671" y="8.77273">Lote </tspan><tspan x="7.61959" y="19.7727">Commercial</tspan></text>
<path id="Line 1" d="M73.998 1431L102.896 1338" stroke="white" stroke-width="2" stroke-linecap="round"/>
<line id="Line 2" x1="102.767" y1="1337.81" x2="253.812" y2="1305.23" stroke="white" stroke-width="2" stroke-linecap="round"/>
</g>
<g id="Green areas">
<circle id="Ellipse 1" cx="92.9879" cy="1069.17" r="8" fill="#4E986F"/>
<circle id="Ellipse 2" cx="122.988" cy="1074.17" r="8" fill="#4E986F"/>
<circle id="Ellipse 3" cx="132.988" cy="1106.17" r="8" fill="#4E986F"/>
<circle id="Ellipse 4" cx="185.988" cy="1111.17" r="8" fill="#4E986F"/>
<circle id="Ellipse 5" cx="179.488" cy="1075.67" r="6.5" fill="#4E986F"/>
<circle id="Ellipse 9" cx="209.488" cy="1089.67" r="6.5" fill="#4E986F"/>
<ellipse id="Ellipse 6" cx="215.953" cy="1114.66" rx="8" ry="10" transform="rotate(-12.4293 215.953 1114.66)" fill="#4E986F"/>
<ellipse id="Ellipse 7" cx="80.1402" cy="1105.16" rx="6.66846" ry="7.73347" transform="rotate(-12.4293 80.1402 1105.16)" fill="#4E986F"/>
<ellipse id="Ellipse 8" cx="110.14" cy="1098.16" rx="6.3376" ry="10.8784" transform="rotate(-12.4293 110.14 1098.16)" fill="#4E986F"/>
<circle id="Ellipse 10" cx="149.988" cy="373.168" r="7" fill="#4E986F"/>
<ellipse id="Ellipse 22" cx="153.988" cy="369.668" rx="8" ry="8.5" fill="#339583"/>
<ellipse id="Ellipse 23" cx="145.988" cy="363.168" rx="8" ry="11" fill="#407975"/>
<ellipse id="Ellipse 18" cx="152.988" cy="347.168" rx="5" ry="7" fill="#64C48F"/>
<ellipse id="Ellipse 39" cx="156.988" cy="349.168" rx="5" ry="7" fill="#6CCE6C"/>
<ellipse id="Ellipse 40" cx="151.988" cy="352.168" rx="5" ry="7" fill="#79CC69"/>
<ellipse id="Ellipse 41" cx="148.988" cy="349.168" rx="5" ry="7" fill="#7FD3A5"/>
<ellipse id="Ellipse 11" cx="245.988" cy="395.668" rx="8" ry="9.5" fill="#52BE83"/>
<path id="Ellipse 30" d="M247.988 389.168C247.988 393.034 244.854 396.168 240.988 396.168C237.122 396.168 233.988 393.034 233.988 389.168C233.988 385.302 237.122 382.168 240.988 382.168C244.854 382.168 247.988 385.302 247.988 389.168Z" fill="#4E9892"/>
<circle id="Ellipse 31" cx="238.488" cy="394.668" r="7.5" fill="#63CD93"/>
<ellipse id="Ellipse 44" cx="245.988" cy="387.668" rx="8" ry="9.5" fill="#52BE83"/>
<path id="Ellipse 45" d="M250.988 380.168C250.988 384.586 247.183 388.168 242.488 388.168C237.794 388.168 233.988 384.586 233.988 380.168C233.988 375.749 237.794 372.168 242.488 372.168C247.183 372.168 250.988 375.749 250.988 380.168Z" fill="#4E9892"/>
<ellipse id="Ellipse 46" cx="239.488" cy="387.168" rx="8.5" ry="8" fill="#63CD93"/>
<ellipse id="Ellipse 47" cx="254.988" cy="392.668" rx="8" ry="9.5" fill="#52BE83"/>
<path id="Ellipse 48" d="M256.988 386.168C256.988 390.034 253.854 393.168 249.988 393.168C246.122 393.168 242.988 390.034 242.988 386.168C242.988 382.302 246.122 379.168 249.988 379.168C253.854 379.168 256.988 382.302 256.988 386.168Z" fill="#4E9892"/>
<ellipse id="Ellipse 49" cx="248.988" cy="390.168" rx="5" ry="6" fill="#63CD93"/>
<ellipse id="Ellipse 50" cx="225.988" cy="366.668" rx="8" ry="9.5" fill="#52BE83"/>
<path id="Ellipse 51" d="M227.988 360.168C227.988 364.034 224.854 367.168 220.988 367.168C217.122 367.168 213.988 364.034 213.988 360.168C213.988 356.302 217.122 353.168 220.988 353.168C224.854 353.168 227.988 356.302 227.988 360.168Z" fill="#4E9892"/>
<circle id="Ellipse 52" cx="217.988" cy="365.168" r="7" fill="#63CD93"/>
<ellipse id="Ellipse 53" cx="174.988" cy="398.668" rx="8" ry="9.5" fill="#52BE83"/>
<path id="Ellipse 54" d="M176.988 392.168C176.988 396.034 173.854 399.168 169.988 399.168C166.122 399.168 162.988 396.034 162.988 392.168C162.988 388.302 166.122 385.168 169.988 385.168C173.854 385.168 176.988 388.302 176.988 392.168Z" fill="#4E9892"/>
<circle id="Ellipse 55" cx="166.988" cy="397.168" r="7" fill="#63CD93"/>
<ellipse id="Ellipse 56" cx="179.988" cy="375.668" rx="8" ry="9.5" fill="#52BE83"/>
<path id="Ellipse 57" d="M181.988 369.168C181.988 373.034 178.854 376.168 174.988 376.168C171.122 376.168 167.988 373.034 167.988 369.168C167.988 365.302 171.122 362.168 174.988 362.168C178.854 362.168 181.988 365.302 181.988 369.168Z" fill="#4E9892"/>
<circle id="Ellipse 58" cx="171.988" cy="374.168" r="7" fill="#63CD93"/>
<ellipse id="Ellipse 12" cx="203.171" cy="394.551" rx="6.5" ry="10.1281" transform="rotate(-30.866 203.171 394.551)" fill="#E8D0A0"/>
<ellipse id="Ellipse 29" cx="202.444" cy="399.989" rx="6.5" ry="7.55666" transform="rotate(-30.866 202.444 399.989)" fill="#D47D7C"/>
<ellipse id="Ellipse 28" cx="206.823" cy="392.664" rx="6.5" ry="8.52981" transform="rotate(-9.62748 206.823 392.664)" fill="#D59E8E"/>
<ellipse id="Ellipse 13" cx="179.844" cy="358.181" rx="5.57845" ry="6.44983" transform="rotate(-30.866 179.844 358.181)" fill="#4E9798"/>
<ellipse id="Ellipse 43" cx="183.085" cy="352.566" rx="5.57845" ry="6.44983" transform="rotate(-30.866 183.085 352.566)" fill="#52BD98"/>
<ellipse id="Ellipse 42" cx="186.22" cy="358.81" rx="5.57845" ry="5.71728" transform="rotate(-30.866 186.22 358.81)" fill="#4E987C"/>
<path id="Ellipse 14" d="M173.254 401.956C171.689 406.082 168.085 408.541 165.204 407.449C162.323 406.356 161.257 402.125 162.822 397.999C164.387 393.873 167.991 391.414 170.872 392.506C173.752 393.599 174.819 397.83 173.254 401.956Z" fill="#3B885E"/>
<path id="Ellipse 33" d="M169.254 396.596C167.689 400.722 164.085 403.181 161.204 402.089C158.323 400.996 157.257 396.765 158.822 392.639C160.387 388.513 163.991 386.053 166.872 387.146C169.752 388.239 170.819 392.469 169.254 396.596Z" fill="#70D89F"/>
<ellipse id="Ellipse 32" cx="163.587" cy="400.165" rx="5.57845" ry="6.72027" transform="rotate(20.7723 163.587 400.165)" fill="#5BCC8E"/>
<ellipse id="Ellipse 20" cx="172.198" cy="378.497" rx="5.57845" ry="5.71485" transform="rotate(-6.73424 172.198 378.497)" fill="#4E986F"/>
<ellipse id="Ellipse 24" cx="176.158" cy="375.997" rx="6.59049" ry="6.09881" transform="rotate(-6.73424 176.158 375.997)" fill="#348071"/>
<ellipse id="Ellipse 25" cx="172.248" cy="370.997" rx="6.59049" ry="6.09881" transform="rotate(-6.73424 172.248 370.997)" fill="#369B87"/>
<ellipse id="Ellipse 21" cx="134.198" cy="398.497" rx="5.57845" ry="5.71485" transform="rotate(-6.73424 134.198 398.497)" fill="#55CAA9"/>
<ellipse id="Ellipse 34" cx="137.08" cy="394.493" rx="5.57845" ry="4.7041" transform="rotate(-6.73424 137.08 394.493)" fill="#48A88D"/>
<ellipse id="Ellipse 35" cx="141.04" cy="397.993" rx="6.70776" ry="6.08117" transform="rotate(33.33 141.04 397.993)" fill="#48A88D"/>
<ellipse id="Ellipse 36" cx="143.08" cy="394.493" rx="5.57845" ry="4.7041" transform="rotate(-6.73424 143.08 394.493)" fill="#38967B"/>
<ellipse id="Ellipse 37" cx="130.558" cy="393.829" rx="6.75175" ry="5.5278" transform="rotate(-33.5674 130.558 393.829)" fill="#33A988"/>
<ellipse id="Ellipse 38" cx="138.813" cy="388.18" rx="6.09537" ry="5.94095" transform="rotate(11.2042 138.813 388.18)" fill="#39987D"/>
<ellipse id="Ellipse 79" cx="94.3108" cy="1077.5" rx="5.57845" ry="5.71485" transform="rotate(-6.73424 94.3108 1077.5)" fill="#55CAA9"/>
<ellipse id="Ellipse 80" cx="101.152" cy="1076.99" rx="6.70776" ry="6.08117" transform="rotate(33.33 101.152 1076.99)" fill="#48A88D"/>
<ellipse id="Ellipse 81" cx="103.192" cy="1073.49" rx="5.57845" ry="4.7041" transform="rotate(-6.73424 103.192 1073.49)" fill="#38967B"/>
<ellipse id="Ellipse 82" cx="90.6701" cy="1072.83" rx="6.75175" ry="5.5278" transform="rotate(-33.5674 90.6701 1072.83)" fill="#33A988"/>
<ellipse id="Ellipse 83" cx="98.9255" cy="1067.18" rx="6.09537" ry="5.94095" transform="rotate(11.2042 98.9255 1067.18)" fill="#39987D"/>
<ellipse id="Ellipse 84" cx="7.53521" cy="7.28431" rx="7.53521" ry="7.28431" transform="matrix(0.99387 -0.110558 0.124366 0.992236 120.252 1068.84)" fill="#55CAA9"/>
<ellipse id="Ellipse 85" cx="8.91237" cy="7.89126" rx="8.91237" ry="7.89126" transform="matrix(0.85008 0.526654 -0.572393 0.819979 134.836 1063.43)" fill="#48A88D"/>
<ellipse id="Ellipse 86" cx="7.53521" cy="5.99597" rx="7.53521" ry="5.99597" transform="matrix(0.99387 -0.110558 0.124366 0.992236 132.418 1065.02)" fill="#38967B"/>
<ellipse id="Ellipse 129" cx="7.53521" cy="5.99597" rx="7.53521" ry="5.99597" transform="matrix(0.99387 -0.110558 0.124366 0.992236 167.988 1065.83)" fill="#38967B"/>
<ellipse id="Ellipse 130" cx="4.50692" cy="5.82947" rx="4.50692" ry="5.82947" transform="matrix(0.99387 -0.110558 0.124366 0.992236 178.029 1069.16)" fill="#38967B"/>
<ellipse id="Ellipse 87" cx="8.96883" cy="7.17485" rx="8.96883" ry="7.17485" transform="matrix(0.847944 -0.530086 0.575862 0.817547 111.988 1068.18)" fill="#33A988"/>
<ellipse id="Ellipse 88" cx="8.22232" cy="7.58399" rx="8.22232" ry="7.58399" transform="matrix(0.983031 0.183441 -0.20576 0.978602 128.362 1053.17)" fill="#39987D"/>
<ellipse id="Ellipse 89" cx="7.17681" cy="7.6671" rx="7.17681" ry="7.6671" transform="matrix(0.708804 0.705406 -0.550928 0.834553 131.436 1090)" fill="#55CAA9"/>
<ellipse id="Ellipse 90" cx="9.60908" cy="7.20282" rx="9.60908" ry="7.20282" transform="matrix(0.155079 0.987902 -0.973122 0.230292 143.845 1096.87)" fill="#48A88D"/>
<ellipse id="Ellipse 91" cx="7.17681" cy="6.31106" rx="7.17681" ry="6.31106" transform="matrix(0.708804 0.705406 -0.550928 0.834553 141.329 1096.28)" fill="#38967B"/>
<ellipse id="Ellipse 92" cx="8.01459" cy="7.90688" rx="8.01459" ry="7.90688" transform="matrix(0.96656 0.256439 -0.173325 0.984865 126.868 1083.17)" fill="#33A988"/>
<ellipse id="Ellipse 93" cx="8.33387" cy="7.48112" rx="8.33387" ry="7.48112" transform="matrix(0.468034 0.883711 -0.781466 0.623948 146.701 1083.82)" fill="#39987D"/>
<ellipse id="Ellipse 94" cx="9.15671" cy="9.70409" rx="9.15671" ry="9.70409" transform="matrix(0.722779 0.691079 -0.566315 0.824189 172.979 1087.71)" fill="#55CAA9"/>
<ellipse id="Ellipse 95" cx="12.023" cy="9.35194" rx="12.023" ry="9.35194" transform="matrix(0.161253 0.986913 -0.975114 0.221705 189.123 1096.3)" fill="#48A88D"/>
<ellipse id="Ellipse 96" cx="9.15671" cy="7.98778" rx="9.15671" ry="7.98778" transform="matrix(0.722779 0.691079 -0.566315 0.824189 185.851 1095.56)" fill="#38967B"/>
<ellipse id="Ellipse 97" cx="10.4008" cy="9.89567" rx="10.4008" ry="9.89567" transform="matrix(0.969016 0.246999 -0.18018 0.983634 167.036 1079.17)" fill="#33A988"/>
<ellipse id="Ellipse 98" cx="10.5117" cy="9.58624" rx="10.5117" ry="9.58624" transform="matrix(0.482766 0.875749 -0.793443 0.608645 192.839 1079.99)" fill="#39987D"/>
<ellipse id="Ellipse 99" cx="9.15671" cy="9.70409" rx="9.15671" ry="9.70409" transform="matrix(-0.364225 0.931311 -0.977644 -0.210266 232.032 1101.91)" fill="#55CAA9"/>
<ellipse id="Ellipse 100" cx="12.023" cy="9.35194" rx="12.023" ry="9.35194" transform="matrix(-0.851403 0.524512 -0.575932 -0.817498 230.233 1120.11)" fill="#48A88D"/>
<ellipse id="Ellipse 101" cx="9.15671" cy="7.98778" rx="9.15671" ry="7.98778" transform="matrix(-0.364225 0.931311 -0.977644 -0.210266 229.672 1116.8)" fill="#38967B"/>
<ellipse id="Ellipse 102" cx="10.4008" cy="9.89567" rx="10.4008" ry="9.89567" transform="matrix(0.140136 0.990132 -0.978237 0.207493 237.672 1093.17)" fill="#33A988"/>
<ellipse id="Ellipse 103" cx="10.5117" cy="9.58624" rx="10.5117" ry="9.58624" transform="matrix(-0.626305 0.779578 -0.86469 -0.502306 246.73 1117.34)" fill="#39987D"/>
<ellipse id="Ellipse 104" cx="9.15671" cy="9.70409" rx="9.15671" ry="9.70409" transform="matrix(0.200109 0.979774 -0.935041 0.35454 229.26 1082.79)" fill="#55CAA9"/>
<ellipse id="Ellipse 105" cx="12.023" cy="9.35194" rx="12.023" ry="9.35194" transform="matrix(-0.429903 0.902875 -0.927629 -0.373504 237.634 1099.05)" fill="#48A88D"/>
<ellipse id="Ellipse 106" cx="9.15671" cy="7.98778" rx="9.15671" ry="7.98778" transform="matrix(0.200109 0.979774 -0.935041 0.35454 235.366 1096.57)" fill="#38967B"/>
<ellipse id="Ellipse 107" cx="10.4008" cy="9.89567" rx="10.4008" ry="9.89567" transform="matrix(0.655517 0.75518 -0.708603 0.705608 229.244 1072.38)" fill="#33A988"/>
<ellipse id="Ellipse 108" cx="10.5117" cy="9.58624" rx="10.5117" ry="9.58624" transform="matrix(-0.102356 0.994748 -0.998848 0.0479864 249.981 1087.76)" fill="#39987D"/>
<ellipse id="Ellipse 109" cx="9.15671" cy="9.70409" rx="9.15671" ry="9.70409" transform="matrix(0.751963 0.659205 -0.530176 0.847887 217.111 1068.81)" fill="#55CAA9"/>
<ellipse id="Ellipse 110" cx="12.023" cy="9.35194" rx="12.023" ry="9.35194" transform="matrix(0.203744 0.979024 -0.964624 0.263629 233.611 1076.69)" fill="#48A88D"/>
<ellipse id="Ellipse 111" cx="9.15671" cy="7.98778" rx="9.15671" ry="7.98778" transform="matrix(0.751963 0.659205 -0.530176 0.847887 230.31 1076.09)" fill="#38967B"/>
<ellipse id="Ellipse 112" cx="10.4008" cy="9.89567" rx="10.4008" ry="9.89567" transform="matrix(0.978783 0.204901 -0.137513 0.9905 210.804 1060.53)" fill="#33A988"/>
<ellipse id="Ellipse 113" cx="10.5117" cy="9.58624" rx="10.5117" ry="9.58624" transform="matrix(0.520154 0.854073 -0.766405 0.642358 236.619 1060.23)" fill="#39987D"/>
<ellipse id="Ellipse 114" cx="9.15671" cy="9.70409" rx="9.15671" ry="9.70409" transform="matrix(-0.427668 -0.903936 0.823715 -0.567004 76.0744 1084.38)" fill="#55CAA9"/>
<ellipse id="Ellipse 115" cx="12.023" cy="9.35194" rx="12.023" ry="9.35194" transform="matrix(0.202532 -0.979276 0.989887 0.14186 64.0706 1070.59)" fill="#48A88D"/>
<ellipse id="Ellipse 116" cx="9.15671" cy="7.98778" rx="9.15671" ry="7.98778" transform="matrix(-0.427668 -0.903936 0.823715 -0.567004 66.862 1072.45)" fill="#38967B"/>
<ellipse id="Ellipse 117" cx="10.4008" cy="9.89567" rx="10.4008" ry="9.89567" transform="matrix(-0.816493 -0.577355 0.52019 -0.854051 78.5678 1094.49)" fill="#33A988"/>
<ellipse id="Ellipse 118" cx="10.5117" cy="9.58624" rx="10.5117" ry="9.58624" transform="matrix(-0.137471 -0.990506 0.958687 -0.284465 54.7654 1084.49)" fill="#39987D"/>
<ellipse id="Ellipse 119" cx="9.15671" cy="9.70409" rx="9.15671" ry="9.70409" transform="matrix(-0.702445 -0.711738 0.589966 -0.807428 78.6744 1111.67)" fill="#55CAA9"/>
<ellipse id="Ellipse 120" cx="12.023" cy="9.35194" rx="12.023" ry="9.35194" transform="matrix(-0.13258 -0.991172 0.98113 -0.193349 62.7863 1102.62)" fill="#48A88D"/>
<ellipse id="Ellipse 121" cx="9.15671" cy="7.98778" rx="9.15671" ry="7.98778" transform="matrix(-0.702445 -0.711738 0.589966 -0.807428 66.0357 1103.45)" fill="#38967B"/>
<ellipse id="Ellipse 122" cx="10.4008" cy="9.89567" rx="10.4008" ry="9.89567" transform="matrix(-0.961449 -0.274982 0.208615 -0.977998 84.368 1120.38)" fill="#33A988"/>
<ellipse id="Ellipse 123" cx="10.5117" cy="9.58624" rx="10.5117" ry="9.58624" transform="matrix(-0.45718 -0.889374 0.810751 -0.585391 58.5994 1118.81)" fill="#39987D"/>
<ellipse id="Ellipse 124" cx="6.68" cy="7.20965" rx="6.68" ry="7.20965" transform="matrix(0.600183 -0.799863 0.936364 0.351031 96.2763 1111.81)" fill="#55CAA9"/>
<ellipse id="Ellipse 125" cx="9.28911" cy="6.40031" rx="9.28911" ry="6.40031" transform="matrix(0.946227 -0.323503 0.419464 0.907772 100.844 1099.76)" fill="#48A88D"/>
<ellipse id="Ellipse 126" cx="6.68" cy="5.93452" rx="6.68" ry="5.93452" transform="matrix(0.600183 -0.799863 0.936364 0.351031 100.68 1102.06)" fill="#38967B"/>
<ellipse id="Ellipse 127" cx="7.15754" cy="7.62286" rx="7.15754" ry="7.62286" transform="matrix(0.10196 -0.994788 0.999636 -0.0269654 90.5 1117.01)" fill="#33A988"/>
<ellipse id="Ellipse 128" cx="7.94234" cy="6.84532" rx="7.94234" ry="6.84532" transform="matrix(0.803975 -0.594663 0.783269 0.621683 87.9879 1099.61)" fill="#39987D"/>
<ellipse id="Ellipse 15" cx="214.988" cy="364.319" rx="6.58804" ry="8.00835" transform="rotate(20.7723 214.988 364.319)" fill="#4E986F"/>
<ellipse id="Ellipse 27" cx="210.988" cy="369.992" rx="6.58804" ry="8.00835" transform="rotate(-23.5037 210.988 369.992)" fill="#5ABA85"/>
<ellipse id="Ellipse 26" cx="217.988" cy="367.992" rx="6.58804" ry="8.00835" transform="rotate(20.7723 217.988 367.992)" fill="#64BE75"/>
<ellipse id="Ellipse 59" cx="233.223" cy="404.668" rx="8" ry="9.5" fill="#52BE83"/>
<path id="Ellipse 60" d="M235.223 398.168C235.223 402.034 232.089 405.168 228.223 405.168C224.357 405.168 221.223 402.034 221.223 398.168C221.223 394.302 224.357 391.168 228.223 391.168C232.089 391.168 235.223 394.302 235.223 398.168Z" fill="#4E9892"/>
<ellipse id="Ellipse 61" cx="222.223" cy="402.319" rx="6.58804" ry="8.00835" transform="rotate(20.7723 222.223 402.319)" fill="#4E986F"/>
<ellipse id="Ellipse 62" cx="218.223" cy="407.992" rx="6.58804" ry="8.00835" transform="rotate(-23.5037 218.223 407.992)" fill="#5ABA85"/>
<ellipse id="Ellipse 63" cx="225.223" cy="405.992" rx="6.58804" ry="8.00835" transform="rotate(20.7723 225.223 405.992)" fill="#64BE75"/>
<ellipse id="Ellipse 64" cx="198.984" cy="378.463" rx="8" ry="9.5" transform="rotate(75.9004 198.984 378.463)" fill="#52BE83"/>
<path id="Ellipse 65" d="M205.776 378.82C202.026 379.762 198.223 377.485 197.281 373.736C196.339 369.986 198.615 366.183 202.365 365.242C206.115 364.3 209.918 366.576 210.859 370.325C211.801 374.075 209.525 377.878 205.776 378.82Z" fill="#4E9892"/>
<ellipse id="Ellipse 66" cx="198.582" cy="367.223" rx="6.58804" ry="8.00835" transform="rotate(96.6727 198.582 367.223)" fill="#4E986F"/>
<ellipse id="Ellipse 67" cx="192.106" cy="364.725" rx="6.58804" ry="8.00835" transform="rotate(52.3968 192.106 364.725)" fill="#5ABA85"/>
<ellipse id="Ellipse 68" cx="195.751" cy="371.027" rx="6.58804" ry="8.00835" transform="rotate(96.6727 195.751 371.027)" fill="#64BE75"/>
<ellipse id="Ellipse 69" cx="271.295" cy="414.004" rx="8" ry="9.5" transform="rotate(137.826 271.295 414.004)" fill="#52BE83"/>
<path id="Ellipse 70" d="M274.177 420.164C271.581 417.299 271.8 412.872 274.665 410.276C277.53 407.681 281.957 407.899 284.552 410.764C287.148 413.629 286.93 418.056 284.064 420.652C281.199 423.247 276.773 423.029 274.177 420.164Z" fill="#4E9892"/>
<ellipse id="Ellipse 71" cx="281.024" cy="408.359" rx="6.58804" ry="8.00835" transform="rotate(158.598 281.024 408.359)" fill="#4E986F"/>
<ellipse id="Ellipse 72" cx="280.18" cy="401.469" rx="6.58804" ry="8.00835" transform="rotate(114.322 280.18 401.469)" fill="#5ABA85"/>
<ellipse id="Ellipse 73" cx="276.335" cy="407.651" rx="6.58804" ry="8.00835" transform="rotate(158.598 276.335 407.651)" fill="#64BE75"/>
<ellipse id="Ellipse 74" cx="277.343" cy="379.37" rx="8" ry="9.5" transform="rotate(53.0377 277.343 379.37)" fill="#52BE83"/>
<path id="Ellipse 75" d="M283.74 377.059C280.651 379.384 276.262 378.764 273.937 375.675C271.613 372.586 272.232 368.197 275.322 365.873C278.411 363.548 282.799 364.168 285.124 367.257C287.448 370.346 286.829 374.735 283.74 377.059Z" fill="#4E9892"/>
<ellipse id="Ellipse 76" cx="272.606" cy="369.168" rx="6.58804" ry="8.00835" transform="rotate(73.81 272.606 369.168)" fill="#4E986F"/>
<ellipse id="Ellipse 77" cx="265.668" cy="369.383" rx="6.58804" ry="8.00835" transform="rotate(29.5341 265.668 369.383)" fill="#5ABA85"/>
<ellipse id="Ellipse 78" cx="271.475" cy="373.774" rx="6.58804" ry="8.00835" transform="rotate(73.81 271.475 373.774)" fill="#64BE75"/>
<ellipse id="Ellipse 16" cx="266.988" cy="365.992" rx="6.58804" ry="8.00835" transform="rotate(20.7723 266.988 365.992)" fill="#4E986F"/>
<ellipse id="Ellipse 17" cx="269.988" cy="410.992" rx="6.58804" ry="8.00835" transform="rotate(-13.9684 269.988 410.992)" fill="#4E986F"/>
<ellipse id="Ellipse 131" cx="10.3725" cy="12.2122" rx="10.3725" ry="12.2122" transform="matrix(-0.362083 0.932146 -0.959999 -0.280005 303.311 383.708)" fill="#52BE83"/>
<path id="Ellipse 132" d="M294.914 394.714C290.143 393.322 287.747 388.406 289.562 383.734C291.377 379.062 296.716 376.402 301.486 377.793C306.257 379.185 308.654 384.101 306.839 388.773C305.024 393.446 299.685 396.105 294.914 394.714Z" fill="#4E9892"/>
<ellipse id="Ellipse 133" cx="8.77272" cy="10.0036" rx="8.77272" ry="10.0036" transform="matrix(-0.658312 0.752745 -0.790425 -0.612558 309.576 377.032)" fill="#4E986F"/>
<ellipse id="Ellipse 134" cx="8.2573" cy="10.6322" rx="8.2573" ry="10.6322" transform="matrix(0.0491833 0.99879 -0.993432 0.114421 300.927 361.168)" fill="#5ABA85"/>
<ellipse id="Ellipse 135" cx="8.77272" cy="10.0036" rx="8.77272" ry="10.0036" transform="matrix(-0.658312 0.752745 -0.790425 -0.612558 303.635 379.336)" fill="#64BE75"/>
<ellipse id="Ellipse 136" cx="8.82629" cy="9.93375" rx="8.82629" ry="9.93375" transform="matrix(0.744165 -0.667996 0.697864 0.71623 270.988 386.345)" fill="#4E986F"/>
<ellipse id="Ellipse 137" cx="13.0901" cy="12.9066" rx="13.0901" ry="12.9066" transform="matrix(0.329004 -0.944328 0.916175 0.400779 119.12 354.891)" fill="#52BE83"/>
<path id="Ellipse 138" d="M128.238 341.072C133.05 343.177 135.263 349.726 133.182 355.7C131.101 361.674 125.513 364.81 120.701 362.705C115.889 360.6 113.675 354.051 115.756 348.077C117.837 342.103 123.426 338.967 128.238 341.072Z" fill="#4E9892"/>
<ellipse id="Ellipse 139" cx="10.3312" cy="11.5052" rx="10.3312" ry="11.5052" transform="matrix(0.602473 -0.798139 0.677184 0.735814 112.391 363.2)" fill="#4E986F"/>
<ellipse id="Ellipse 140" cx="10.7657" cy="10.9007" rx="10.7657" ry="10.9007" transform="matrix(-0.0016663 -0.999999 0.996305 -0.0858881 120.472 384.391)" fill="#5ABA85"/>
<ellipse id="Ellipse 141" cx="10.3312" cy="11.5052" rx="10.3312" ry="11.5052" transform="matrix(0.602473 -0.798139 0.677184 0.735814 118.578 360.564)" fill="#64BE75"/>
<ellipse id="Ellipse 142" cx="10.097" cy="11.8085" rx="10.097" ry="11.8085" transform="matrix(-0.693395 0.720557 -0.571347 -0.820709 152.303 353.439)" fill="#4E986F"/>
<circle id="Ellipse 19" cx="60.4878" cy="1298.67" r="13.5" fill="#6899C3"/>
<ellipse id="Ellipse 12_2" cx="157.776" cy="1102.03" rx="6.5" ry="10.1281" transform="rotate(-30.866 157.776 1102.03)" fill="#E8D0A0"/>
<ellipse id="Ellipse 29_2" cx="157.049" cy="1107.47" rx="6.5" ry="7.55666" transform="rotate(-30.866 157.049 1107.47)" fill="#D47D7C"/>
<ellipse id="Ellipse 28_2" cx="161.427" cy="1100.14" rx="6.5" ry="8.52981" transform="rotate(-9.62748 161.427 1100.14)" fill="#D59E8E"/>
<path id="Ellipse 32_2" d="M156.452 1115.86C154.563 1112.75 154.584 1108.78 156.5 1107C158.416 1105.22 161.501 1106.3 163.39 1109.41C165.28 1112.52 165.259 1116.49 163.343 1118.27C161.427 1120.05 158.342 1118.97 156.452 1115.86Z" fill="#D59E8E"/>
<ellipse id="Ellipse 30_2" cx="5.10538" cy="7.24496" rx="5.10538" ry="7.24496" transform="matrix(-0.448327 0.893869 -0.792905 -0.609345 173.513 1108.98)" fill="#E8D0A0"/>
<ellipse id="Ellipse 31_2" cx="5.10538" cy="5.40552" rx="5.10538" ry="5.40552" transform="matrix(-0.448327 0.893869 -0.792905 -0.609345 170.82 1103.59)" fill="#D47D7C"/>
</g>
</g>
<defs>
<linearGradient id="paint0_linear_62_2" x1="151.488" y1="-17.8321" x2="239.488" y2="1413.17" gradientUnits="userSpaceOnUse">
<stop stop-color="#4A4A51"/>
<stop offset="1" stop-color="#5A5A6E" stop-opacity="0.24"/>
</linearGradient>
</defs>
</svg>
