<svg xmlns="http://www.w3.org/2000/svg" width="380" height="1433" fill="none"><g id="Villa-Map"><g id="lotmap"><path id="perimeter" fill="#4a4a51" d="M379.5 59 156 0l-43.5 224.5L73 370 24.5 704.038 20.5 1046 0 1379.04l56.5 53.46L242 1384l47-314 23.5-337 25-342.462z"/><path id="Arrow 2" fill="#121212" d="m34 1305.46 3.398-4.67-5.742-.61zm1.744-16.46-.497-.05-1.27 11.98.497.06.497.05 1.27-11.99z"/><g id="lot-29"><path id="shape" fill="#a9bbb2" stroke="#d9b382" d="m184.01 65.306 70.163 11.554a4.5 4.5 0 0 1 3.709 5.171l-3.532 21.453a4.5 4.5 0 0 1-5.172 3.709l-70.163-11.555a4.5 4.5 0 0 1-3.709-5.17l3.532-21.453a4.5 4.5 0 0 1 5.172-3.71Z"/><text xml:space="preserve" id="text" fill="#212121" font-family="Inter" font-size="14" font-weight="bold" letter-spacing="0em" style="white-space:pre" transform="rotate(8.874 -386.584 1383.627)"><tspan x=".47" y="13.591">29</tspan></text></g><g id="lot-30"><path id="shape_2" fill="#a9bbb2" stroke="#d9b382" d="m270.01 79.306 70.163 11.554a4.5 4.5 0 0 1 3.709 5.171l-3.532 21.453a4.5 4.5 0 0 1-5.172 3.709l-70.163-11.555a4.5 4.5 0 0 1-3.709-5.171l3.532-21.452a4.5 4.5 0 0 1 5.172-3.71Z"/><text xml:space="preserve" id="text_2" fill="#212121" font-family="Inter" font-size="14" font-weight="bold" letter-spacing="0em" style="white-space:pre" transform="rotate(8.874 -433.797 1944.793)"><tspan x=".066" y="13.591">30</tspan></text></g><g id="lot-28"><path id="shape_3" fill="#a9bbb2" stroke="#d9b382" d="m178.01 99.306 70.163 11.554a4.5 4.5 0 0 1 3.709 5.171l-3.532 21.453a4.5 4.5 0 0 1-5.172 3.709l-70.163-11.555a4.5 4.5 0 0 1-3.709-5.171l3.532-21.452a4.5 4.5 0 0 1 5.172-3.71Z"/><text xml:space="preserve" id="text_3" fill="#212121" font-family="Inter" font-size="14" font-weight="bold" letter-spacing="0em" style="white-space:pre" transform="rotate(8.874 -608.675 1361.964)"><tspan x=".463" y="13.591">28</tspan></text></g><g id="lot-31"><path id="shape_4" fill="#a9bbb2" stroke="#d9b382" d="m264.01 113.308 70.164 11.585a4.504 4.504 0 0 1 3.71 5.174l-3.536 21.534a4.5 4.5 0 0 1-5.17 3.708l-70.164-11.585a4.505 4.505 0 0 1-3.71-5.174l3.536-21.535a4.496 4.496 0 0 1 5.17-3.707Z"/><text xml:space="preserve" id="text_4" fill="#212121" font-family="Inter" font-size="14" font-weight="bold" letter-spacing="0em" style="white-space:pre" transform="rotate(8.85 -658.705 1934.496)skewY(.046)"><tspan x=".461" y="13.591">31</tspan></text></g><g id="lot-27"><path id="shape_5" fill="#a9bbb2" stroke="#d9b382" d="m171.01 133.306 70.163 11.554a4.5 4.5 0 0 1 3.709 5.171l-3.532 21.453a4.5 4.5 0 0 1-5.172 3.709l-70.163-11.555a4.5 4.5 0 0 1-3.709-5.171l3.532-21.452a4.5 4.5 0 0 1 5.172-3.709Z"/><text xml:space="preserve" id="text_5" fill="#212121" font-family="Inter" font-size="14" font-weight="bold" letter-spacing="0em" style="white-space:pre" transform="rotate(8.874 -831.264 1333.857)"><tspan x=".428" y="13.591">27
</tspan></text></g><g id="lot-32"><path id="shape_6" fill="#a9bbb2" stroke="#d9b382" d="m258.01 147.306 70.163 11.554a4.5 4.5 0 0 1 3.709 5.171l-3.532 21.453a4.5 4.5 0 0 1-5.172 3.709l-70.163-11.555a4.5 4.5 0 0 1-3.709-5.171l3.532-21.452a4.5 4.5 0 0 1 5.172-3.709Z"/><text xml:space="preserve" id="text_6" fill="#212121" font-family="Inter" font-size="14" font-weight="bold" letter-spacing="0em" style="white-space:pre" transform="rotate(8.874 -877.978 1901.468)"><tspan x=".477" y="13.591">32</tspan></text></g><g id="lot-26"><path id="shape_7" fill="#a9bbb2" stroke="#d9b382" d="m165.01 167.306 70.163 11.554a4.5 4.5 0 0 1 3.709 5.171l-3.532 21.453a4.5 4.5 0 0 1-5.172 3.709l-70.163-11.555a4.5 4.5 0 0 1-3.709-5.171l3.532-21.452a4.5 4.5 0 0 1 5.172-3.709Z"/><text xml:space="preserve" id="text_7" fill="#212121" font-family="Inter" font-size="14" font-weight="bold" letter-spacing="0em" style="white-space:pre" transform="rotate(8.874 -1053.353 1312.195)"><tspan x=".47" y="13.591">26
</tspan></text></g><g id="lot-33"><path id="shape_8" fill="#a9bbb2" stroke="#d9b382" d="m252.01 181.306 70.163 11.554a4.5 4.5 0 0 1 3.709 5.171l-3.532 21.453a4.5 4.5 0 0 1-5.172 3.709l-70.163-11.555a4.5 4.5 0 0 1-3.709-5.171l3.532-21.452a4.5 4.5 0 0 1 5.172-3.709Z"/><text xml:space="preserve" id="text_8" fill="#212121" font-family="Inter" font-size="14" font-weight="bold" letter-spacing="0em" style="white-space:pre" transform="rotate(8.874 -1100.067 1879.805)"><tspan x=".271" y="13.591">33</tspan></text></g><g id="lot-25"><path id="shape_9" fill="#a9bbb2" stroke="#d9b382" d="m159.01 201.306 70.163 11.554a4.5 4.5 0 0 1 3.709 5.171l-3.532 21.453a4.5 4.5 0 0 1-5.172 3.709l-70.163-11.555a4.5 4.5 0 0 1-3.709-5.171l3.532-21.452a4.5 4.5 0 0 1 5.172-3.709Z"/><text xml:space="preserve" id="text_9" fill="#212121" font-family="Inter" font-size="14" font-weight="bold" letter-spacing="0em" style="white-space:pre" transform="rotate(8.874 -1275.442 1290.532)"><tspan x=".079" y="13.591">25</tspan></text></g><g id="lot-34"><path id="shape_10" fill="#a9bbb2" stroke="#d9b382" d="m246.01 215.306 70.163 11.554a4.5 4.5 0 0 1 3.709 5.171l-3.532 21.453a4.5 4.5 0 0 1-5.172 3.709l-70.163-11.555a4.5 4.5 0 0 1-3.709-5.171l3.532-21.452a4.5 4.5 0 0 1 5.172-3.709Z"/><text xml:space="preserve" id="text_10" fill="#212121" font-family="Inter" font-size="14" font-weight="bold" letter-spacing="0em" style="white-space:pre" transform="rotate(8.874 -1322.156 1858.142)"><tspan x=".142" y="13.591">34
</tspan></text></g><g id="lot-24"><path id="shape_11" fill="#a9bbb2" stroke="#d9b382" d="m153.01 235.306 70.163 11.554a4.5 4.5 0 0 1 3.709 5.171l-3.532 21.453a4.5 4.5 0 0 1-5.172 3.709l-70.163-11.555a4.5 4.5 0 0 1-3.709-5.171l3.532-21.452a4.5 4.5 0 0 1 5.172-3.709Z"/><text xml:space="preserve" id="text_11" fill="#212121" font-family="Inter" font-size="14" font-weight="bold" letter-spacing="0em" style="white-space:pre" transform="rotate(8.874 -1497.531 1268.87)"><tspan x=".456" y="13.591">24
</tspan></text></g><g id="lot-35"><path id="shape_12" fill="#a9bbb2" stroke="#d9b382" d="m240.01 250.306 70.163 11.554a4.5 4.5 0 0 1 3.709 5.171l-3.532 21.453a4.5 4.5 0 0 1-5.172 3.709l-70.163-11.555a4.5 4.5 0 0 1-3.709-5.171l3.532-21.452a4.5 4.5 0 0 1 5.172-3.709Z"/><text xml:space="preserve" id="text_12" fill="#212121" font-family="Inter" font-size="14" font-weight="bold" letter-spacing="0em" style="white-space:pre" transform="rotate(8.874 -1550.688 1836.98)"><tspan x=".374" y="13.591">35
</tspan></text></g><g id="lot-23"><path id="shape_13" fill="#a9bbb2" stroke="#d9b382" d="m146.01 269.306 70.163 11.554a4.5 4.5 0 0 1 3.709 5.171l-3.532 21.453a4.5 4.5 0 0 1-5.172 3.709l-70.163-11.555a4.5 4.5 0 0 1-3.709-5.171l3.532-21.452a4.5 4.5 0 0 1 5.172-3.709Z"/><text xml:space="preserve" id="text_13" fill="#212121" font-family="Inter" font-size="14" font-weight="bold" letter-spacing="0em" style="white-space:pre" transform="rotate(8.874 -1720.12 1240.763)"><tspan x=".477" y="13.591">23
</tspan></text></g><g id="lot-36"><path id="shape_14" fill="#a9bbb2" stroke="#d9b382" d="m235.01 284.306 70.163 11.554a4.5 4.5 0 0 1 3.709 5.171l-3.532 21.453a4.5 4.5 0 0 1-5.172 3.709l-70.163-11.555a4.5 4.5 0 0 1-3.709-5.171l3.532-21.452a4.5 4.5 0 0 1 5.172-3.709Z"/><text xml:space="preserve" id="text_14" fill="#212121" font-family="Inter" font-size="14" font-weight="bold" letter-spacing="0em" style="white-space:pre" transform="rotate(8.874 -1772.277 1821.76)"><tspan x=".265" y="13.591">36
</tspan></text></g><g id="lot-22"><path id="shape_15" fill="#a9bbb2" stroke="#d9b382" d="m140.01 303.306 70.163 11.554a4.5 4.5 0 0 1 3.709 5.171l-3.532 21.453a4.5 4.5 0 0 1-5.172 3.709l-70.163-11.555a4.5 4.5 0 0 1-3.709-5.171l3.532-21.452a4.5 4.5 0 0 1 5.172-3.709Z"/><text xml:space="preserve" id="text_15" fill="#212121" font-family="Inter" font-size="14" font-weight="bold" letter-spacing="0em" style="white-space:pre" transform="rotate(8.874 -1942.21 1219.1)"><tspan x=".182" y="13.591">22
</tspan></text></g><g id="lot-21"><path id="shape_16" fill="#a9bbb2" stroke="#d9b382" d="m118.56 409.633 72.219 5.799a4.5 4.5 0 0 1 4.126 4.846l-3.166 39.433a4.5 4.5 0 0 1-4.846 4.126l-72.22-5.799a4.5 4.5 0 0 1-4.125-4.845l3.166-39.434a4.5 4.5 0 0 1 4.846-4.126Z"/><text xml:space="preserve" id="text_16" fill="#212121" font-family="Inter" font-size="14" font-weight="bold" letter-spacing="0em" style="white-space:pre" transform="rotate(3.407 -7102.932 2665.733)"><tspan x=".166" y="13.591">21
</tspan></text></g><g id="lot-38"><path id="shape_17" fill="#a9bbb2" stroke="#d9b382" d="m204.56 416.633 72.219 5.799a4.5 4.5 0 0 1 4.126 4.846l-3.166 39.433a4.5 4.5 0 0 1-4.846 4.126l-72.22-5.799a4.5 4.5 0 0 1-4.125-4.845l3.166-39.434a4.5 4.5 0 0 1 4.846-4.126Z"/><text xml:space="preserve" id="text_17" fill="#212121" font-family="Inter" font-size="14" font-weight="bold" letter-spacing="0em" style="white-space:pre" transform="rotate(3.407 -7177.133 4098.376)"><tspan x=".258" y="13.591">38</tspan></text></g><g id="lot-37"><path id="shape_18" fill="#a9bbb2" stroke="#d9b382" d="m229.01 318.306 70.163 11.554a4.5 4.5 0 0 1 3.709 5.171l-3.532 21.453a4.5 4.5 0 0 1-5.172 3.709l-70.163-11.555a4.5 4.5 0 0 1-3.709-5.171l3.532-21.452a4.5 4.5 0 0 1 5.172-3.709Z"/><text xml:space="preserve" id="text_18" fill="#212121" font-family="Inter" font-size="14" font-weight="bold" letter-spacing="0em" style="white-space:pre" transform="rotate(8.874 -1994.366 1800.098)"><tspan x=".223" y="13.591">37</tspan></text></g><g id="lot-14"><path id="shape_19" fill="#a9bbb2" stroke="#d9b382" d="m90.095 711.886 71.064 2.509a4.5 4.5 0 0 1 4.338 4.655l-.767 21.728a4.5 4.5 0 0 1-4.656 4.339l-71.064-2.509a4.5 4.5 0 0 1-4.338-4.655l.767-21.728a4.5 4.5 0 0 1 4.656-4.339Z"/><text xml:space="preserve" id="text_19" fill="#212121" font-family="Inter" font-size="14" font-weight="bold" letter-spacing="0em" style="white-space:pre" transform="rotate(1.544 -26641.038 4704.175)"><tspan x=".331" y="13.591">14</tspan></text></g><g id="lot-45"><path id="shape_20" fill="#a9bbb2" stroke="#d9b382" d="m177.095 714.886 71.064 2.509a4.5 4.5 0 0 1 4.338 4.655l-.767 21.728a4.5 4.5 0 0 1-4.656 4.339l-71.064-2.509a4.5 4.5 0 0 1-4.338-4.655l.767-21.728a4.5 4.5 0 0 1 4.656-4.339Z"/><text xml:space="preserve" id="text_20" fill="#212121" font-family="Inter" font-size="14" font-weight="bold" letter-spacing="0em" style="white-space:pre" transform="rotate(1.544 -26708.353 7896.81)"><tspan x=".244" y="13.591">45
</tspan></text></g><g id="lot-13"><path id="shape_21" fill="#a9bbb2" stroke="#d9b382" d="m89.095 746.886 71.064 2.509a4.5 4.5 0 0 1 4.338 4.655l-.767 21.728a4.5 4.5 0 0 1-4.656 4.339l-71.064-2.509a4.5 4.5 0 0 1-4.338-4.655l.767-21.728a4.5 4.5 0 0 1 4.656-4.339Z"/><text xml:space="preserve" id="text_21" fill="#212121" font-family="Inter" font-size="14" font-weight="bold" letter-spacing="0em" style="white-space:pre" transform="rotate(1.544 -27940.246 4684.57)"><tspan x=".461" y="13.591">13
</tspan></text></g><g id="lot-46"><path id="shape_22" fill="#a9bbb2" stroke="#d9b382" d="m176.095 749.886 71.064 2.509a4.5 4.5 0 0 1 4.338 4.655l-.767 21.728a4.5 4.5 0 0 1-4.656 4.339l-71.064-2.509a4.5 4.5 0 0 1-4.338-4.655l.767-21.728a4.5 4.5 0 0 1 4.656-4.339Z"/><text xml:space="preserve" id="text_22" fill="#212121" font-family="Inter" font-size="14" font-weight="bold" letter-spacing="0em" style="white-space:pre" transform="rotate(1.544 -28007.561 7877.204)"><tspan x=".135" y="13.591">46
</tspan></text></g><g id="lot-12"><path id="shape_23" fill="#a9bbb2" stroke="#d9b382" d="m88.272 780.989 71.064 2.508a4.5 4.5 0 0 1 4.339 4.656l-.767 21.728a4.5 4.5 0 0 1-4.656 4.339l-71.064-2.509a4.5 4.5 0 0 1-4.339-4.656l.767-21.727a4.5 4.5 0 0 1 4.656-4.339Z"/><text xml:space="preserve" id="text_23" fill="#212121" font-family="Inter" font-size="14" font-weight="bold" letter-spacing="0em" style="white-space:pre" transform="rotate(1.544 -29206.08 4671.12)"><tspan x=".166" y="13.591">12
</tspan><tspan x="8" y="30.591">
</tspan></text></g><g id="lot-47"><path id="shape_24" fill="#a9bbb2" stroke="#d9b382" d="m174.363 784.031 71.065 2.508a4.5 4.5 0 0 1 4.338 4.656l-.767 21.727a4.5 4.5 0 0 1-4.656 4.339l-71.064-2.508a4.5 4.5 0 0 1-4.338-4.656l.767-21.728a4.5 4.5 0 0 1 4.655-4.338Z"/><text xml:space="preserve" id="text_24" fill="#212121" font-family="Inter" font-size="14" font-weight="bold" letter-spacing="0em" style="white-space:pre" transform="rotate(1.544 -29275.372 7830.046)"><tspan x=".093" y="13.591">47
</tspan></text></g><g id="lot-11"><path id="shape_25" fill="#a9bbb2" stroke="#d9b382" d="m86.659 815.477 71.064 2.508a4.5 4.5 0 0 1 4.338 4.656l-.767 21.728a4.5 4.5 0 0 1-4.655 4.338l-71.065-2.508a4.5 4.5 0 0 1-4.338-4.656l.767-21.728a4.5 4.5 0 0 1 4.656-4.338Z"/><text xml:space="preserve" id="text_25" fill="#212121" font-family="Inter" font-size="14" font-weight="bold" letter-spacing="0em" style="white-space:pre" transform="rotate(1.544 -30487.1 4665.594)"><tspan x=".15" y="13.591">11
</tspan></text></g><g id="lot-48"><path id="shape_26" fill="#a9bbb2" stroke="#d9b382" d="m172.75 818.518 71.064 2.508a4.5 4.5 0 0 1 4.339 4.656l-.767 21.728a4.5 4.5 0 0 1-4.656 4.338l-71.064-2.508a4.5 4.5 0 0 1-4.339-4.656l.767-21.727a4.5 4.5 0 0 1 4.656-4.339Z"/><text xml:space="preserve" id="text_26" fill="#212121" font-family="Inter" font-size="14" font-weight="bold" letter-spacing="0em" style="white-space:pre" transform="rotate(1.544 -30555.889 7787.4)"><tspan x=".128" y="13.591">48
</tspan></text></g><g id="lot-10"><path id="shape_27" fill="#a9bbb2" stroke="#d9b382" d="m86.095 848.886 71.064 2.509a4.5 4.5 0 0 1 4.338 4.655l-.767 21.728a4.5 4.5 0 0 1-4.656 4.339l-71.064-2.509a4.5 4.5 0 0 1-4.338-4.655l.767-21.728a4.5 4.5 0 0 1 4.656-4.339Z"/><text xml:space="preserve" id="text_27" fill="#212121" font-family="Inter" font-size="14" font-weight="bold" letter-spacing="0em" style="white-space:pre" transform="rotate(1.544 -31726.552 4624.252)"><tspan x=".256" y="13.591">10
</tspan></text></g><g id="lot-49"><path id="shape_28" fill="#a9bbb2" stroke="#d9b382" d="m171.095 851.886 71.064 2.509a4.5 4.5 0 0 1 4.338 4.655l-.767 21.728a4.5 4.5 0 0 1-4.656 4.339l-71.064-2.509a4.5 4.5 0 0 1-4.338-4.655l.767-21.728a4.5 4.5 0 0 1 4.656-4.339Z"/><text xml:space="preserve" id="text_28" fill="#212121" font-family="Inter" font-size="14" font-weight="bold" letter-spacing="0em" style="white-space:pre" transform="rotate(1.544 -31794.867 7742.674)"><tspan x=".135" y="13.591">49
</tspan><tspan x="9.5" y="30.591">
</tspan><tspan x="9.5" y="47.591">
</tspan></text></g><g id="lot-9"><path id="shape_29" fill="#a9bbb2" stroke="#d9b382" d="m84.095 882.886 71.064 2.509a4.5 4.5 0 0 1 4.338 4.655l-.767 21.728a4.5 4.5 0 0 1-4.656 4.339l-71.064-2.509a4.5 4.5 0 0 1-4.338-4.655l.767-21.728a4.5 4.5 0 0 1 4.656-4.339Z"/><text xml:space="preserve" id="text_29" fill="#212121" font-family="Inter" font-size="14" font-weight="bold" letter-spacing="0em" style="white-space:pre" transform="rotate(1.544 -32990.66 4678.361)"><tspan x=".379" y="13.591">9
</tspan><tspan x="5" y="30.591">
</tspan></text></g><g id="lot-50"><path id="shape_30" fill="#a9bbb2" stroke="#d9b382" d="m170.095 885.886 71.064 2.509a4.5 4.5 0 0 1 4.338 4.655l-.767 21.728a4.5 4.5 0 0 1-4.656 4.339l-71.064-2.509a4.5 4.5 0 0 1-4.338-4.655l.767-21.728a4.5 4.5 0 0 1 4.656-4.339Z"/><text xml:space="preserve" id="text_30" fill="#212121" font-family="Inter" font-size="14" font-weight="bold" letter-spacing="0em" style="white-space:pre" transform="rotate(1.544 -33056.969 7722.568)"><tspan x=".169" y="13.591">50
</tspan></text></g><g id="lot-8"><path id="shape_31" fill="#a9bbb2" stroke="#d9b382" d="m83.095 916.886 71.064 2.509a4.5 4.5 0 0 1 4.338 4.655l-.767 21.728a4.5 4.5 0 0 1-4.656 4.339l-71.064-2.509a4.5 4.5 0 0 1-4.338-4.655l.767-21.728a4.5 4.5 0 0 1 4.656-4.339Z"/><text xml:space="preserve" id="text_31" fill="#212121" font-family="Inter" font-size="14" font-weight="bold" letter-spacing="0em" style="white-space:pre" transform="rotate(1.544 -34252.762 4658.255)"><tspan x=".372" y="13.591">8
</tspan><tspan x="5" y="30.591">
</tspan></text></g><g id="lot-51"><path id="shape_32" fill="#a9bbb2" stroke="#d9b382" d="m168.095 919.886 71.064 2.509a4.5 4.5 0 0 1 4.338 4.655l-.767 21.728a4.5 4.5 0 0 1-4.656 4.339l-71.064-2.509a4.5 4.5 0 0 1-4.338-4.655l.767-21.728a4.5 4.5 0 0 1 4.656-4.339Z"/><text xml:space="preserve" id="text_32" fill="#212121" font-family="Inter" font-size="14" font-weight="bold" letter-spacing="0em" style="white-space:pre" transform="rotate(1.544 -34320.073 7702.439)"><tspan x=".063" y="13.591">51
</tspan><tspan x="8" y="30.591">
</tspan></text></g><g id="lot-7"><path id="shape_33" fill="#a9bbb2" stroke="#d9b382" d="m81.095 949.886 71.064 2.509a4.5 4.5 0 0 1 4.338 4.655l-.767 21.728a4.5 4.5 0 0 1-4.656 4.339l-71.064-2.509a4.5 4.5 0 0 1-4.338-4.655l.767-21.728a4.5 4.5 0 0 1 4.656-4.339Z"/><text xml:space="preserve" id="text_33" fill="#212121" font-family="Inter" font-size="14" font-weight="bold" letter-spacing="0em" style="white-space:pre" transform="rotate(1.544 -35478.76 4637.663)"><tspan x=".337" y="13.591">7
</tspan></text></g><g id="lot-6"><path id="shape_34" fill="#a9bbb2" stroke="#d9b382" d="m80.095 983.886 71.064 2.509a4.5 4.5 0 0 1 4.338 4.655l-.767 21.73a4.51 4.51 0 0 1-4.656 4.34l-71.064-2.51a4.5 4.5 0 0 1-4.338-4.66l.767-21.725a4.5 4.5 0 0 1 4.656-4.339Z"/><text xml:space="preserve" id="text_34" fill="#212121" font-family="Inter" font-size="14" font-weight="bold" letter-spacing="0em" style="white-space:pre" transform="rotate(1.544 -36740.36 4580.437)"><tspan x=".379" y="13.591">6
</tspan></text></g><g id="lot-5"><path id="shape_35" fill="#a9bbb2" stroke="#d9b382" d="m78.714 1017.83 70.307 2.85a4.55 4.55 0 0 1 4.36 4.68l-.679 22.39a4.444 4.444 0 0 1-4.632 4.32l-70.307-2.85a4.55 4.55 0 0 1-4.36-4.68l.678-22.39a4.445 4.445 0 0 1 4.633-4.32Z"/><text xml:space="preserve" id="text_35" fill="#212121" font-family="Inter" font-size="14" font-weight="bold" letter-spacing="0em" style="white-space:pre" transform="matrix(.9995 .03184 -.0222 .99975 104.439 1025.75)"><tspan x="4.405" y="13.591">5</tspan></text></g><g id="lot-54"><path id="shape_36" fill="#a9bbb2" stroke="#d9b382" d="m163.701 1021.59 70.305 4.58c2.48.17 4.471 2.31 4.446 4.8l-.265 26.87c-.025 2.48-2.055 4.37-4.535 4.21l-70.305-4.59c-2.48-.17-4.471-2.31-4.446-4.8l.265-26.87c.024-2.48 2.055-4.37 4.535-4.2Z"/><text xml:space="preserve" id="text_36" fill="#212121" font-family="Inter" font-size="14" font-weight="bold" letter-spacing="0em" style="white-space:pre" transform="matrix(.99847 .05536 -.0028 1 188.114 1032)"><tspan x="1.636" y="13.591">54
</tspan></text></g><g id="lot-53"><path id="shape_37" fill="#a9bbb2" stroke="#d9b382" d="m165.095 987.886 71.064 2.509a4.5 4.5 0 0 1 4.338 4.655l-.767 21.73a4.51 4.51 0 0 1-4.656 4.34l-71.064-2.51a4.5 4.5 0 0 1-4.338-4.66l.767-21.725a4.5 4.5 0 0 1 4.656-4.339Z"/><text xml:space="preserve" id="text_37" fill="#212121" font-family="Inter" font-size="14" font-weight="bold" letter-spacing="0em" style="white-space:pre" transform="rotate(1.544 -36844.275 7588.039)"><tspan x=".374" y="13.591">53
</tspan></text></g><g id="lot-52"><path id="shape_38" fill="#a9bbb2" stroke="#d9b382" d="m167.095 953.886 71.064 2.509a4.5 4.5 0 0 1 4.338 4.655l-.767 21.728a4.5 4.5 0 0 1-4.656 4.339l-71.064-2.509a4.5 4.5 0 0 1-4.338-4.655l.767-21.728a4.5 4.5 0 0 1 4.656-4.339Z"/><text xml:space="preserve" id="text_38" fill="#212121" font-family="Inter" font-size="14" font-weight="bold" letter-spacing="0em" style="white-space:pre" transform="rotate(1.544 -35581.673 7645.25)"><tspan x=".079" y="13.591">52
</tspan></text></g><g id="lot-4"><path id="shape_39" fill="#a9bbb2" stroke="#d9b382" d="m72.06 1117.86 70.631 8.22a4.5 4.5 0 0 1 3.949 4.99l-2.515 21.6a4.505 4.505 0 0 1-4.99 3.95l-70.631-8.23a4.5 4.5 0 0 1-3.95-4.99l2.516-21.59a4.5 4.5 0 0 1 4.99-3.95Z"/><text xml:space="preserve" id="text_39" fill="#212121" font-family="Inter" font-size="14" font-weight="bold" letter-spacing="0em" style="white-space:pre" transform="rotate(6.166 -10420.555 1504.593)"><tspan x=".256" y="13.591">4</tspan></text></g><g id="lot-55"><path id="shape_40" fill="#a9bbb2" stroke="#d9b382" d="m154.931 1127.7 70.631 8.22a4.5 4.5 0 0 1 3.95 4.99l-2.516 21.6a4.505 4.505 0 0 1-4.99 3.95l-70.631-8.23a4.5 4.5 0 0 1-3.949-4.99l2.515-21.6a4.5 4.5 0 0 1 4.99-3.94Z"/><text xml:space="preserve" id="text_40" fill="#212121" font-family="Inter" font-size="14" font-weight="bold" letter-spacing="0em" style="white-space:pre" transform="rotate(6.166 -10468.461 2241.687)"><tspan x=".477" y="13.591">55</tspan></text></g><g id="lot-3"><path id="shape_41" fill="#a9bbb2" stroke="#d9b382" d="m67.06 1151.86 70.631 8.22a4.5 4.5 0 0 1 3.949 4.99l-2.515 21.6a4.505 4.505 0 0 1-4.99 3.95l-70.631-8.23a4.5 4.5 0 0 1-3.95-4.99l2.516-21.59a4.5 4.5 0 0 1 4.99-3.95Z"/><text xml:space="preserve" id="text_41" fill="#212121" font-family="Inter" font-size="14" font-weight="bold" letter-spacing="0em" style="white-space:pre" transform="rotate(6.166 -10738.68 1475.18)"><tspan x=".386" y="13.591">3</tspan></text></g><g id="lot-2"><path id="shape_42" fill="#a9bbb2" stroke="#d9b382" d="m63.06 1185.86 70.631 8.22a4.5 4.5 0 0 1 3.949 4.99l-2.515 21.6a4.505 4.505 0 0 1-4.99 3.95l-70.631-8.23a4.5 4.5 0 0 1-3.95-4.99l2.516-21.59a4.5 4.5 0 0 1 4.99-3.95Z"/><text xml:space="preserve" id="text_42" fill="#212121" font-family="Inter" font-size="14" font-weight="bold" letter-spacing="0em" style="white-space:pre" transform="rotate(6.166 -11041.993 1449.378)"><tspan x=".091" y="13.591">2</tspan></text></g><g id="lot-1"><path id="shape_43" fill="#a9bbb2" stroke="#d9b382" d="m59.06 1219.86 70.631 8.22a4.5 4.5 0 0 1 3.949 4.99l-2.515 21.6a4.505 4.505 0 0 1-4.99 3.95l-70.631-8.23a4.5 4.5 0 0 1-3.95-4.99l2.516-21.59a4.5 4.5 0 0 1 4.99-3.95Z"/><text xml:space="preserve" id="text_43" fill="#212121" font-family="Inter" font-size="14" font-weight="bold" letter-spacing="0em" style="white-space:pre" transform="rotate(6.166 -11374.977 1453.485)"><tspan x=".075" y="13.591">1</tspan></text></g><g id="lot-57"><path id="shape_44" fill="#a9bbb2" stroke="#d9b382" d="m147.06 1195.86 70.631 8.22a4.5 4.5 0 0 1 3.949 4.99l-2.515 21.6a4.505 4.505 0 0 1-4.99 3.95l-70.631-8.23a4.5 4.5 0 0 1-3.949-4.99l2.515-21.59a4.5 4.5 0 0 1 4.99-3.95Z"/><text xml:space="preserve" id="text_44" fill="#212121" font-family="Inter" font-size="14" font-weight="bold" letter-spacing="0em" style="white-space:pre" transform="rotate(6.166 -11105.132 2202.69)"><tspan x=".325" y="13.591">57</tspan></text></g><g id="lot-58"><path id="shape_45" fill="#a9bbb2" stroke="#d9b382" d="m143.06 1229.86 70.631 8.22a4.5 4.5 0 0 1 3.949 4.99l-2.515 21.6a4.505 4.505 0 0 1-4.99 3.95l-70.631-8.23a4.5 4.5 0 0 1-3.949-4.99l2.515-21.59a4.5 4.5 0 0 1 4.99-3.95Z"/><text xml:space="preserve" id="text_45" fill="#212121" font-family="Inter" font-size="14" font-weight="bold" letter-spacing="0em" style="white-space:pre" transform="rotate(6.166 -11422.757 2182.558)"><tspan x=".36" y="13.591">58
</tspan></text></g><g id="lot-56"><path id="shape_46" fill="#a9bbb2" stroke="#d9b382" d="m151.06 1161.86 70.631 8.22a4.5 4.5 0 0 1 3.949 4.99l-2.515 21.6a4.505 4.505 0 0 1-4.99 3.95l-70.631-8.23a4.5 4.5 0 0 1-3.949-4.99l2.515-21.59a4.5 4.5 0 0 1 4.99-3.95Z"/><text xml:space="preserve" id="text_46" fill="#212121" font-family="Inter" font-size="14" font-weight="bold" letter-spacing="0em" style="white-space:pre" transform="rotate(6.166 -10787.507 2222.823)"><tspan x=".367" y="13.591">56</tspan></text></g><g id="lot-20"><path id="shape_47" fill="#a9bbb2" stroke="#d9b382" d="m114.083 461.381 70.868 5.842a4.5 4.5 0 0 1 4.115 4.855l-1.786 21.668a4.5 4.5 0 0 1-4.855 4.115l-70.868-5.842a4.5 4.5 0 0 1-4.115-4.855l1.786-21.667a4.5 4.5 0 0 1 4.855-4.116Z"/><text xml:space="preserve" id="text_47" fill="#212121" font-family="Inter" font-size="14" font-weight="bold" letter-spacing="0em" style="white-space:pre" transform="rotate(4.235 -6289.01 2124.014)"><tspan x=".271" y="13.591">20</tspan></text></g><g id="lot-39"><path id="shape_48" fill="#a9bbb2" stroke="#d9b382" d="m201.083 468.381 70.868 5.842a4.5 4.5 0 0 1 4.115 4.855l-1.786 21.668a4.5 4.5 0 0 1-4.855 4.115l-70.868-5.842a4.5 4.5 0 0 1-4.115-4.855l1.786-21.667a4.5 4.5 0 0 1 4.855-4.116Z"/><text xml:space="preserve" id="text_48" fill="#212121" font-family="Inter" font-size="14" font-weight="bold" letter-spacing="0em" style="white-space:pre" transform="rotate(4.235 -6340.17 3304.003)"><tspan x=".265" y="13.591">39
</tspan></text></g><g id="lot-19"><path id="shape_49" fill="#a9bbb2" stroke="#d9b382" d="m111.083 495.381 70.868 5.842a4.5 4.5 0 0 1 4.115 4.855l-1.786 21.668a4.5 4.5 0 0 1-4.855 4.115l-70.868-5.842a4.5 4.5 0 0 1-4.115-4.855l1.786-21.667a4.5 4.5 0 0 1 4.855-4.116Z"/><text xml:space="preserve" id="text_49" fill="#212121" font-family="Inter" font-size="14" font-weight="bold" letter-spacing="0em" style="white-space:pre" transform="rotate(4.235 -6750.79 2113.978)"><tspan x=".454" y="13.591">19
</tspan></text></g><g id="lot-40"><path id="shape_50" fill="#a9bbb2" stroke="#d9b382" d="m198.083 502.381 70.868 5.842a4.5 4.5 0 0 1 4.115 4.855l-1.786 21.668a4.5 4.5 0 0 1-4.855 4.115l-70.868-5.842a4.5 4.5 0 0 1-4.115-4.855l1.786-21.667a4.5 4.5 0 0 1 4.855-4.116Z"/><text xml:space="preserve" id="text_50" fill="#212121" font-family="Inter" font-size="14" font-weight="bold" letter-spacing="0em" style="white-space:pre" transform="rotate(4.235 -6800.945 3266.915)"><tspan x=".437" y="13.591">40
</tspan></text></g><g id="lot-18"><path id="shape_51" fill="#a9bbb2" stroke="#d9b382" d="m108.083 530.381 70.868 5.842a4.5 4.5 0 0 1 4.115 4.855l-1.786 21.668a4.5 4.5 0 0 1-4.855 4.115l-70.868-5.842a4.5 4.5 0 0 1-4.115-4.855l1.786-21.667a4.5 4.5 0 0 1 4.855-4.116Z"/><text xml:space="preserve" id="text_51" fill="#212121" font-family="Inter" font-size="14" font-weight="bold" letter-spacing="0em" style="white-space:pre" transform="rotate(4.235 -7225.59 2090.91)"><tspan x=".447" y="13.591">18
</tspan></text></g><g id="lot-41"><path id="shape_52" fill="#a9bbb2" stroke="#d9b382" d="m195.083 537.381 70.868 5.842a4.5 4.5 0 0 1 4.115 4.855l-1.786 21.668a4.5 4.5 0 0 1-4.855 4.115l-70.868-5.842a4.5 4.5 0 0 1-4.115-4.855l1.786-21.667a4.5 4.5 0 0 1 4.855-4.116Z"/><text xml:space="preserve" id="text_52" fill="#212121" font-family="Inter" font-size="14" font-weight="bold" letter-spacing="0em" style="white-space:pre" transform="rotate(4.235 -7276.75 3270.898)"><tspan x=".399" y="13.591">41
</tspan></text></g><g id="lot-17"><path id="shape_53" fill="#a9bbb2" stroke="#d9b382" d="m105.083 564.381 70.868 5.842a4.5 4.5 0 0 1 4.115 4.855l-1.786 21.668a4.5 4.5 0 0 1-4.855 4.115l-70.868-5.842a4.5 4.5 0 0 1-4.115-4.855l1.786-21.667a4.5 4.5 0 0 1 4.855-4.116Z"/><text xml:space="preserve" id="text_53" fill="#212121" font-family="Inter" font-size="14" font-weight="bold" letter-spacing="0em" style="white-space:pre" transform="rotate(4.235 -7686.866 2067.341)"><tspan x=".412" y="13.591">17
</tspan></text></g><g id="lot-42"><path id="shape_54" fill="#a9bbb2" stroke="#d9b382" d="m192.083 571.381 70.868 5.842a4.5 4.5 0 0 1 4.115 4.855l-1.786 21.668a4.5 4.5 0 0 1-4.855 4.115l-70.868-5.842a4.5 4.5 0 0 1-4.115-4.855l1.786-21.667a4.5 4.5 0 0 1 4.855-4.116Z"/><text xml:space="preserve" id="text_54" fill="#212121" font-family="Inter" font-size="14" font-weight="bold" letter-spacing="0em" style="white-space:pre" transform="rotate(4.235 -7737.524 3233.797)"><tspan x=".347" y="13.591">42
</tspan></text></g><g id="lot-16"><path id="shape_55" fill="#a9bbb2" stroke="#d9b382" d="m102.313 598.042 70.868 5.842a4.5 4.5 0 0 1 4.115 4.854l-1.786 21.668a4.5 4.5 0 0 1-4.854 4.115l-70.868-5.842a4.5 4.5 0 0 1-4.115-4.854l1.786-21.668a4.5 4.5 0 0 1 4.854-4.115Z"/><text xml:space="preserve" id="text_55" fill="#212121" font-family="Inter" font-size="14" font-weight="bold" letter-spacing="0em" style="white-space:pre" transform="rotate(4.235 -8143.43 2046.713)"><tspan x=".454" y="13.591">16
</tspan></text></g><g id="lot-43"><path id="shape_56" fill="#a9bbb2" stroke="#d9b382" d="m189.083 605.381 70.868 5.842a4.5 4.5 0 0 1 4.115 4.855l-1.786 21.668a4.5 4.5 0 0 1-4.855 4.115l-70.868-5.842a4.5 4.5 0 0 1-4.115-4.855l1.786-21.667a4.5 4.5 0 0 1 4.855-4.116Z"/><text xml:space="preserve" id="text_56" fill="#212121" font-family="Inter" font-size="14" font-weight="bold" letter-spacing="0em" style="white-space:pre" transform="rotate(4.235 -8198.801 3210.228)"><tspan x=".142" y="13.591">43
</tspan></text></g><g id="lot-15"><path id="shape_57" fill="#a9bbb2" stroke="#d9b382" d="m99.083 632.416 70.868 5.842a4.5 4.5 0 0 1 4.115 4.854l-1.786 21.668a4.5 4.5 0 0 1-4.855 4.115l-70.868-5.842a4.5 4.5 0 0 1-4.115-4.854l1.786-21.668a4.5 4.5 0 0 1 4.855-4.115Z"/><text xml:space="preserve" id="text_57" fill="#212121" font-family="Inter" font-size="14" font-weight="bold" letter-spacing="0em" style="white-space:pre" transform="rotate(4.235 -8609.88 2020.221)"><tspan x=".063" y="13.591">15
</tspan></text></g><g id="lot-44"><path id="shape_58" fill="#a9bbb2" stroke="#d9b382" d="m186.083 639.381 70.868 5.842a4.5 4.5 0 0 1 4.115 4.855l-1.786 21.668a4.5 4.5 0 0 1-4.855 4.115l-70.868-5.842a4.5 4.5 0 0 1-4.115-4.855l1.786-21.667a4.5 4.5 0 0 1 4.855-4.116Z"/><text xml:space="preserve" id="text_58" fill="#212121" font-family="Inter" font-size="14" font-weight="bold" letter-spacing="0em" style="white-space:pre" transform="rotate(4.235 -8660.078 3186.66)"><tspan x=".012" y="13.591">44
</tspan></text></g><path id="Arrow 1" fill="#121212" d="m66 1278 3.86 4.29 1.788-5.49zm15.74 5.12.155-.47-11.461-3.73-.155.47-.155.48 11.461 3.73z"/></g><g id="environment"><path id="Rectangle 3" fill="#d9d9d9" d="m18 1336.5 13 8-5 14.5-14-6.87zm48.5 26 13 8-5 14.5-14-6.87z"/><path id="Rectangle 4" fill="#5a5f6a" d="M32.013 1346h37v2.256h-37z" transform="rotate(26.67 32.013 1346)"/><path id="Rectangle 6" fill="#5a5f6a" d="M28.013 1358h37v2.256h-37z" transform="rotate(26.67 28.013 1358)"/><path id="Rectangle 5" fill="#5a5f6a" d="M31.013 1349h37v2.256h-37z" transform="rotate(26.67 31.013 1349)"/><path id="Rectangle 7" fill="#5a5f6a" d="M30.013 1352h37v2.256h-37z" transform="rotate(26.67 30.013 1352)"/><path id="Rectangle 8" fill="#5a5f6a" d="M29.013 1355h37v2.256h-37z" transform="rotate(26.67 29.013 1355)"/><path id="Arrow 1_2" fill="#121212" d="m49 1383-4.73 3.31 5.231 2.44zm-7 15 .453.21 5.097-10.92-.453-.21-.453-.21-5.097 10.92z"/><path id="Arrow 3" fill="#121212" d="m75.214 1320-5.479-1.82 1.163 5.65zM59 1323.33l.1.49 11.807-2.42-.1-.49-.102-.49-11.806 2.42z"/><path id="Arrow 2_2" fill="#121212" d="m24 1389 4.73-3.31-5.232-2.44zm7-15-.453-.21-5.097 10.92.453.21.453.21 5.097-10.92z"/><text xml:space="preserve" id="Lote Commercial" fill="#212121" font-family="Inter" font-size="9" font-weight="bold" letter-spacing="0em" style="white-space:pre" transform="rotate(-13.373 5868.776 160.57)"><tspan x="24.367" y="8.773">Lote </tspan><tspan x="7.62" y="19.773">Commercial</tspan></text></g><g id="Green areas"><circle id="Ellipse 1" cx="92" cy="1069" r="8" fill="#4e986f"/><circle id="Ellipse 2" cx="122" cy="1074" r="8" fill="#4e986f"/><circle id="Ellipse 3" cx="132" cy="1106" r="8" fill="#4e986f"/><circle id="Ellipse 4" cx="185" cy="1111" r="8" fill="#4e986f"/><circle id="Ellipse 5" cx="178.5" cy="1075.5" r="6.5" fill="#4e986f"/><circle id="Ellipse 9" cx="208.5" cy="1089.5" r="6.5" fill="#4e986f"/><ellipse id="Ellipse 6" cx="214.965" cy="1114.49" fill="#4e986f" rx="8" ry="10" transform="rotate(-12.43 214.965 1114.49)"/><ellipse id="Ellipse 7" cx="79.152" cy="1104.99" fill="#4e986f" rx="6.668" ry="7.733" transform="rotate(-12.43 79.152 1104.99)"/><ellipse id="Ellipse 8" cx="109.152" cy="1097.99" fill="#4e986f" rx="6.338" ry="10.878" transform="rotate(-12.43 109.152 1097.99)"/><circle id="Ellipse 10" cx="149" cy="373" r="7" fill="#4e986f"/><ellipse id="Ellipse 18" cx="152" cy="347" fill="#4e986f" rx="5" ry="7"/><circle id="Ellipse 11" cx="244" cy="393" r="7" fill="#4e986f"/><ellipse id="Ellipse 12" cx="201.479" cy="393.206" fill="#4e986f" rx="6.5" ry="11.5" transform="rotate(-30.866 201.479 393.206)"/><ellipse id="Ellipse 13" cx="177.477" cy="355.706" fill="#4e986f" rx="5.578" ry="9.138" transform="rotate(-30.866 177.477 355.706)"/><ellipse id="Ellipse 14" cx="167.877" cy="397.63" fill="#4e986f" rx="5.578" ry="10.322" transform="rotate(20.772 167.877 397.63)"/><ellipse id="Ellipse 20" cx="171.21" cy="378.33" fill="#4e986f" rx="5.578" ry="5.715" transform="rotate(-6.734 171.21 378.33)"/><ellipse id="Ellipse 21" cx="133.21" cy="398.33" fill="#4e986f" rx="5.578" ry="5.715" transform="rotate(-6.734 133.21 398.33)"/><ellipse id="Ellipse 15" cx="214" cy="364.151" fill="#4e986f" rx="6.588" ry="8.008" transform="rotate(20.772 214 364.151)"/><ellipse id="Ellipse 16" cx="266" cy="365.824" fill="#4e986f" rx="6.588" ry="8.008" transform="rotate(20.772 266 365.824)"/><ellipse id="Ellipse 17" cx="269" cy="410.824" fill="#4e986f" rx="6.588" ry="8.008" transform="rotate(-13.968 269 410.824)"/><circle id="Ellipse 19" cx="59.5" cy="1298.5" r="13.5" fill="#6899c3"/></g></g></svg>